<svg xmlns:xlink="http://www.w3.org/1999/xlink" xmlns="http://www.w3.org/2000/svg" class="framer-d4tNk framer-1y6uz8w" role="presentation" viewBox="0 0 24 24" style="--1m6trwb: 0; --21h8s6: var(--token-06ca163c-bd22-4ef3-b608-13ad9cff31ab, rgb(26, 22, 21)); --pgex8v: 1.5; opacity: 1;" width="24"  height="24" ><defs><svg display="block" role="presentation" viewBox="0 0 24 24" xmlns="http://www.w3.org/2000/svg" id="1727193461"><path d="M 0 9 C 0 4.029 4.029 0 9 0 C 13.971 0 18 4.029 18 9 C 18 13.971 13.971 18 9 18 C 4.029 18 0 13.971 0 9 Z" fill-opacity="0" fill="var(--21h8s6, rgb(0, 0, 0))" height="18px" id="ZAwn0e2yN" transform="translate(3 3)" width="18px"></path><path d="M 0 9 C 0 4.029 4.029 0 9 0 C 13.971 0 18 4.029 18 9 C 18 13.971 13.971 18 9 18 C 4.029 18 0 13.971 0 9 Z" fill="#000000" height="18px" id="bq5comQIv" stroke-dasharray="" stroke-linecap="round" stroke-linejoin="round" stroke-width="1.5px" stroke="#000000" transform="translate(3 3)" width="18px" fill-opacity="0"></path><path d="M 0 0 L 0 5.25 L 5.25 5.25" fill="#000000" height="5.25px" id="xmvtAEC_v" stroke-dasharray="" stroke-linecap="round" stroke-linejoin="round" stroke-width="1.5px" stroke="#000000" transform="translate(12 6.75)" width="5.25px" fill-opacity="0"></path></svg></defs><use href="#1727193461"></use></svg>