<svg xmlns="http://www.w3.org/2000/svg" xmlns:xlink="http://www.w3.org/1999/xlink" zoomAndPan="magnify" viewBox="22 155 332 64" preserveAspectRatio="xMidYMid meet" version="1.0"><defs><g/></defs><g fill="#222222" fill-opacity="1"><g transform="translate(26.244133, 212.999986)"><g><path d="M 43.421875 0 L 39.515625 -11.390625 L 17.515625 -11.390625 L 13.609375 0 L 0.9375 0 L 20.6875 -53.5 L 36.359375 -53.5 L 56.09375 0 Z M 20.75 -20.78125 L 36.25 -20.78125 L 28.671875 -42.828125 L 28.328125 -42.828125 Z M 20.75 -20.78125 "/></g></g></g><g fill="#222222" fill-opacity="1"><g transform="translate(78.486787, 212.999986)"><g><path d="M 18.90625 0.8125 C 16.90625 0.8125 14.859375 0.570312 12.765625 0.09375 C 10.679688 -0.375 8.65625 -1.070312 6.6875 -2 C 4.71875 -2.9375 2.90625 -4.066406 1.25 -5.390625 L 6.671875 -13.171875 C 7.679688 -12.097656 8.847656 -11.113281 10.171875 -10.21875 C 11.492188 -9.332031 12.898438 -8.628906 14.390625 -8.109375 C 15.890625 -7.597656 17.40625 -7.34375 18.9375 -7.34375 C 19.96875 -7.34375 20.910156 -7.484375 21.765625 -7.765625 C 22.617188 -8.046875 23.296875 -8.484375 23.796875 -9.078125 C 24.304688 -9.671875 24.5625 -10.429688 24.5625 -11.359375 C 24.5625 -12.472656 24.128906 -13.289062 23.265625 -13.8125 C 22.398438 -14.332031 21.101562 -14.816406 19.375 -15.265625 L 14.484375 -16.546875 C 12.171875 -17.171875 10.1875 -17.96875 8.53125 -18.9375 C 6.882812 -19.90625 5.625 -21.132812 4.75 -22.625 C 3.875 -24.113281 3.4375 -25.945312 3.4375 -28.125 C 3.4375 -30.914062 4.101562 -33.21875 5.4375 -35.03125 C 6.78125 -36.851562 8.632812 -38.210938 11 -39.109375 C 13.375 -40.015625 16.109375 -40.46875 19.203125 -40.46875 C 21.609375 -40.46875 23.773438 -40.195312 25.703125 -39.65625 C 27.640625 -39.113281 29.398438 -38.398438 30.984375 -37.515625 C 32.566406 -36.628906 34.007812 -35.644531 35.3125 -34.5625 L 30.25 -27.625 C 28.5 -29.375 26.648438 -30.679688 24.703125 -31.546875 C 22.765625 -32.410156 20.910156 -32.84375 19.140625 -32.84375 C 17.679688 -32.84375 16.5 -32.546875 15.59375 -31.953125 C 14.695312 -31.359375 14.25 -30.523438 14.25 -29.453125 C 14.25 -28.597656 14.566406 -27.929688 15.203125 -27.453125 C 15.847656 -26.984375 16.765625 -26.59375 17.953125 -26.28125 L 24.53125 -24.5 C 25.875 -24.132812 27.210938 -23.664062 28.546875 -23.09375 C 29.890625 -22.519531 31.117188 -21.769531 32.234375 -20.84375 C 33.359375 -19.925781 34.257812 -18.753906 34.9375 -17.328125 C 35.613281 -15.898438 35.953125 -14.132812 35.953125 -12.03125 C 35.953125 -7.96875 34.507812 -4.8125 31.625 -2.5625 C 28.738281 -0.3125 24.5 0.8125 18.90625 0.8125 Z M 18.90625 0.8125 "/></g></g></g><g fill="#222222" fill-opacity="1"><g transform="translate(111.727488, 212.999986)"><g><path d="M 16.90625 0 C 13.226562 0 10.523438 -0.953125 8.796875 -2.859375 C 7.066406 -4.773438 6.203125 -7.695312 6.203125 -11.625 L 6.203125 -32.921875 L 0.84375 -32.921875 L 0.84375 -39.6875 L 6.203125 -39.6875 L 6.203125 -53.5 L 17.515625 -53.5 L 17.515625 -39.6875 L 25.8125 -39.6875 L 25.8125 -32.921875 L 17.515625 -32.921875 L 17.515625 -13.921875 C 17.515625 -12.585938 17.640625 -11.550781 17.890625 -10.8125 C 18.140625 -10.070312 18.582031 -9.554688 19.21875 -9.265625 C 19.863281 -8.972656 20.742188 -8.828125 21.859375 -8.828125 L 25.8125 -8.828125 L 25.8125 0 Z M 16.90625 0 "/></g></g></g><g fill="#222222" fill-opacity="1"><g transform="translate(134.961842, 212.999986)"><g><path d="M 5.046875 0 L 5.046875 -39.6875 L 16.03125 -39.6875 L 16.03125 -32.546875 L 16.234375 -32.546875 C 17.316406 -35.398438 18.957031 -37.429688 21.15625 -38.640625 C 23.351562 -39.859375 26.101562 -40.46875 29.40625 -40.46875 L 29.40625 -30.625 C 26.914062 -30.425781 24.832031 -29.972656 23.15625 -29.265625 C 21.488281 -28.554688 20.160156 -27.570312 19.171875 -26.3125 C 18.179688 -25.050781 17.472656 -23.472656 17.046875 -21.578125 C 16.617188 -19.679688 16.40625 -17.429688 16.40625 -14.828125 L 16.40625 0 Z M 5.046875 0 "/></g></g></g><g fill="#222222" fill-opacity="1"><g transform="translate(160.150298, 212.999986)"><g><path d="M 20.75 -40.46875 C 24.007812 -40.46875 26.835938 -39.960938 29.234375 -38.953125 C 31.640625 -37.941406 33.5 -36.414062 34.8125 -34.375 C 36.132812 -32.34375 36.796875 -29.8125 36.796875 -26.78125 L 36.796875 0 L 26.78125 0 L 26.78125 -4.109375 C 24.40625 -2.203125 22.179688 -0.898438 20.109375 -0.203125 C 18.046875 0.492188 16.082031 0.84375 14.21875 0.84375 C 11.726562 0.84375 9.5625 0.40625 7.71875 -0.46875 C 5.875 -1.34375 4.445312 -2.609375 3.4375 -4.265625 C 2.425781 -5.929688 1.921875 -7.9375 1.921875 -10.28125 C 1.921875 -12.207031 2.269531 -13.894531 2.96875 -15.34375 C 3.664062 -16.789062 4.640625 -18.050781 5.890625 -19.125 C 7.148438 -20.207031 8.632812 -21.140625 10.34375 -21.921875 C 12.050781 -22.710938 13.90625 -23.390625 15.90625 -23.953125 L 26.78125 -27.046875 C 26.695312 -28.648438 26.097656 -29.867188 24.984375 -30.703125 C 23.867188 -31.546875 22.347656 -31.96875 20.421875 -31.96875 C 18.910156 -31.96875 17.375 -31.734375 15.8125 -31.265625 C 14.257812 -30.796875 12.765625 -30.15625 11.328125 -29.34375 C 9.890625 -28.53125 8.617188 -27.609375 7.515625 -26.578125 L 2.65625 -34.09375 C 5.394531 -36.320312 8.316406 -37.941406 11.421875 -38.953125 C 14.523438 -39.960938 17.632812 -40.46875 20.75 -40.46875 Z M 17.515625 -7.171875 C 19.085938 -7.171875 20.648438 -7.566406 22.203125 -8.359375 C 23.753906 -9.160156 25.28125 -10.210938 26.78125 -11.515625 L 26.78125 -18.9375 L 18.59375 -16.3125 C 16.75 -15.726562 15.378906 -15.050781 14.484375 -14.28125 C 13.585938 -13.519531 13.140625 -12.476562 13.140625 -11.15625 C 13.140625 -9.914062 13.523438 -8.941406 14.296875 -8.234375 C 15.078125 -7.523438 16.148438 -7.171875 17.515625 -7.171875 Z M 17.515625 -7.171875 "/></g></g></g><g fill="#222222" fill-opacity="1"><g transform="translate(196.322152, 212.999986)"><g><path d="M 6.328125 0 L 6.328125 -53.5 L 26.890625 -53.5 C 33.171875 -53.5 38.28125 -52.425781 42.21875 -50.28125 C 46.164062 -48.132812 49.070312 -45.050781 50.9375 -41.03125 C 52.800781 -37.007812 53.734375 -32.179688 53.734375 -26.546875 C 53.734375 -20.910156 52.773438 -16.113281 50.859375 -12.15625 C 48.941406 -8.207031 46 -5.191406 42.03125 -3.109375 C 38.0625 -1.035156 32.988281 0 26.8125 0 Z M 18.0625 -10.046875 L 25.90625 -10.046875 C 29.882812 -10.046875 33.054688 -10.691406 35.421875 -11.984375 C 37.796875 -13.273438 39.503906 -15.175781 40.546875 -17.6875 C 41.585938 -20.207031 42.109375 -23.273438 42.109375 -26.890625 C 42.109375 -30.390625 41.617188 -33.378906 40.640625 -35.859375 C 39.671875 -38.347656 38.0625 -40.242188 35.8125 -41.546875 C 33.5625 -42.847656 30.539062 -43.5 26.75 -43.5 L 18.0625 -43.5 Z M 18.0625 -10.046875 "/></g></g></g><g fill="#222222" fill-opacity="1"><g transform="translate(248.328965, 212.999986)"><g><path d="M 5.046875 -45.21875 L 5.046875 -53.5 L 16.40625 -53.5 L 16.40625 -45.21875 Z M 5.046875 0 L 5.046875 -39.6875 L 16.40625 -39.6875 L 16.40625 0 Z M 5.046875 0 "/></g></g></g><g fill="#222222" fill-opacity="1"><g transform="translate(264.959815, 212.999986)"><g><path d="M 20.75 -40.46875 C 24.007812 -40.46875 26.835938 -39.960938 29.234375 -38.953125 C 31.640625 -37.941406 33.5 -36.414062 34.8125 -34.375 C 36.132812 -32.34375 36.796875 -29.8125 36.796875 -26.78125 L 36.796875 0 L 26.78125 0 L 26.78125 -4.109375 C 24.40625 -2.203125 22.179688 -0.898438 20.109375 -0.203125 C 18.046875 0.492188 16.082031 0.84375 14.21875 0.84375 C 11.726562 0.84375 9.5625 0.40625 7.71875 -0.46875 C 5.875 -1.34375 4.445312 -2.609375 3.4375 -4.265625 C 2.425781 -5.929688 1.921875 -7.9375 1.921875 -10.28125 C 1.921875 -12.207031 2.269531 -13.894531 2.96875 -15.34375 C 3.664062 -16.789062 4.640625 -18.050781 5.890625 -19.125 C 7.148438 -20.207031 8.632812 -21.140625 10.34375 -21.921875 C 12.050781 -22.710938 13.90625 -23.390625 15.90625 -23.953125 L 26.78125 -27.046875 C 26.695312 -28.648438 26.097656 -29.867188 24.984375 -30.703125 C 23.867188 -31.546875 22.347656 -31.96875 20.421875 -31.96875 C 18.910156 -31.96875 17.375 -31.734375 15.8125 -31.265625 C 14.257812 -30.796875 12.765625 -30.15625 11.328125 -29.34375 C 9.890625 -28.53125 8.617188 -27.609375 7.515625 -26.578125 L 2.65625 -34.09375 C 5.394531 -36.320312 8.316406 -37.941406 11.421875 -38.953125 C 14.523438 -39.960938 17.632812 -40.46875 20.75 -40.46875 Z M 17.515625 -7.171875 C 19.085938 -7.171875 20.648438 -7.566406 22.203125 -8.359375 C 23.753906 -9.160156 25.28125 -10.210938 26.78125 -11.515625 L 26.78125 -18.9375 L 18.59375 -16.3125 C 16.75 -15.726562 15.378906 -15.050781 14.484375 -14.28125 C 13.585938 -13.519531 13.140625 -12.476562 13.140625 -11.15625 C 13.140625 -9.914062 13.523438 -8.941406 14.296875 -8.234375 C 15.078125 -7.523438 16.148438 -7.171875 17.515625 -7.171875 Z M 17.515625 -7.171875 "/></g></g></g><g fill="#222222" fill-opacity="1"><g transform="translate(301.131657, 212.999986)"><g><path d="M 5.046875 0 L 5.046875 -53.5 L 16.4375 -53.5 L 16.4375 0 Z M 5.046875 0 "/></g></g></g><g fill="#222222" fill-opacity="1"><g transform="translate(331.563258, 212.999986)"><g><path d="M 6.9375 0 L 6.9375 -12.265625 L 19.109375 -12.265625 L 19.109375 0 Z M 6.9375 0 "/></g></g></g></svg>