<svg xmlns:xlink="http://www.w3.org/1999/xlink" xmlns="http://www.w3.org/2000/svg" class="framer-c2uAX framer-1y6uz8w" role="presentation" viewBox="0 0 24 24" style="--1m6trwb: 0; --21h8s6: var(--token-06ca163c-bd22-4ef3-b608-13ad9cff31ab, rgb(26, 22, 21)); --pgex8v: 1.5; opacity: 1;" width="24"  height="24" ><defs><svg display="block" role="presentation" viewBox="0 0 24 24" xmlns="http://www.w3.org/2000/svg" id="3151112179"><path d="M 3.75 0 L 0 11.25 L 7.5 11.25 Z" fill-opacity="0" fill="var(--21h8s6, rgb(0, 0, 0))" height="11.25px" id="q_nKPtBGJ" transform="translate(2.25 6)" width="7.5px"></path><path d="M 0 4.125 C 0 1.847 1.847 0 4.125 0 C 6.403 0 8.25 1.847 8.25 4.125 C 8.25 6.403 6.403 8.25 4.125 8.25 C 1.847 8.25 0 6.403 0 4.125 Z" fill-opacity="0" fill="var(--21h8s6, rgb(0, 0, 0))" height="8.25px" id="MpPyBdaZ4" transform="translate(10.5 3)" width="8.25px"></path><path d="M 0 5.25 L 0 0 L 8.25 0 L 8.25 5.25 Z" fill-opacity="0" fill="var(--21h8s6, rgb(0, 0, 0))" height="5.25px" id="vndv5ExCK" transform="translate(12.75 14.25)" width="8.25px"></path><path d="M 3.75 0 L 0 11.25 L 7.5 11.25 Z" fill="#000000" height="11.25px" id="vm9iwQat7" stroke-dasharray="" stroke-linecap="round" stroke-linejoin="round" stroke-width="1.5px" stroke="#000000" transform="translate(2.25 6)" width="7.5px" fill-opacity="0"></path><path d="M 0 4.125 C 0 1.847 1.847 0 4.125 0 C 6.403 0 8.25 1.847 8.25 4.125 C 8.25 6.403 6.403 8.25 4.125 8.25 C 1.847 8.25 0 6.403 0 4.125 Z" fill="#000000" height="8.25px" id="ZJXViX94I" stroke-dasharray="" stroke-linecap="round" stroke-linejoin="round" stroke-width="1.5px" stroke="#000000" transform="translate(10.5 3)" width="8.25px" fill-opacity="0"></path><path d="M 0 5.25 L 0 0 L 8.25 0 L 8.25 5.25 Z" fill="#000000" height="5.25px" id="sATOM9inG" stroke-dasharray="" stroke-linecap="round" stroke-linejoin="round" stroke-width="1.5px" stroke="#000000" transform="translate(12.75 14.25)" width="8.25px" fill-opacity="0"></path></svg></defs><use href="#3151112179"></use></svg>