<svg xmlns:xlink="http://www.w3.org/1999/xlink" xmlns="http://www.w3.org/2000/svg" class="framer-bRpEP framer-1y6uz8w" role="presentation" viewBox="0 0 24 24" style="--1m6trwb: 0; --21h8s6: var(--token-06ca163c-bd22-4ef3-b608-13ad9cff31ab, rgb(26, 22, 21)); --pgex8v: 1.5; opacity: 1;" width="24"  height="24" ><defs><svg display="block" role="presentation" viewBox="0 0 24 24" xmlns="http://www.w3.org/2000/svg" id="1943853474"><path d="M 0 15 L 0 0.75 C 0 0.336 0.336 0 0.75 0 L 17.25 0 C 17.664 0 18 0.336 18 0.75 L 18 15 L 15 13.5 L 12 15 L 9 13.5 L 6 15 L 3 13.5 Z" fill-opacity="0" fill="var(--21h8s6, rgb(0, 0, 0))" height="15px" id="hiiiCWWeH" transform="translate(3 4.5)" width="18px"></path><path d="M 0 0 L 9 0" fill="#000000" height="1px" id="m47GLWBhX" stroke-dasharray="" stroke-linecap="round" stroke-linejoin="round" stroke-width="1.5px" stroke="#000000" transform="translate(7.5 9.75)" width="9px" fill-opacity="0"></path><path d="M 0 0 L 9 0" fill="#000000" height="1px" id="Y_znFlZmF" stroke-dasharray="" stroke-linecap="round" stroke-linejoin="round" stroke-width="1.5px" stroke="#000000" transform="translate(7.5 12.75)" width="9px" fill-opacity="0"></path><path d="M 0 15 L 0 0.75 C 0 0.336 0.336 0 0.75 0 L 17.25 0 C 17.664 0 18 0.336 18 0.75 L 18 15 L 15 13.5 L 12 15 L 9 13.5 L 6 15 L 3 13.5 Z" fill="#000000" height="15px" id="WEFrYDNFS" stroke-dasharray="" stroke-linecap="round" stroke-linejoin="round" stroke-width="1.5px" stroke="#000000" transform="translate(3 4.5)" width="18px" fill-opacity="0"></path></svg></defs><use href="#1943853474"></use></svg>