<svg xmlns:xlink="http://www.w3.org/1999/xlink" xmlns="http://www.w3.org/2000/svg" class="framer-5QXbG framer-1y6uz8w" role="presentation" viewBox="0 0 24 24" style="--1m6trwb: 0; --21h8s6: var(--token-06ca163c-bd22-4ef3-b608-13ad9cff31ab, rgb(26, 22, 21)); --pgex8v: 1.5; opacity: 1;" width="24"  height="24" ><defs><svg display="block" role="presentation" viewBox="0 0 24 24" xmlns="http://www.w3.org/2000/svg" id="2628849924"><path d="M 0 12 L 0 0 L 11.25 0 L 11.25 12 Z" fill-opacity="0" fill="var(--21h8s6, rgb(0, 0, 0))" height="12px" id="Ri5ZgjvmZ" transform="translate(9 6)" width="11.25px"></path><path d="M 0 0 L 11.25 0" fill="#000000" height="1px" id="F2CtQlnI4" stroke-dasharray="" stroke-linecap="round" stroke-linejoin="round" stroke-width="1.5px" stroke="#000000" transform="translate(9 6)" width="11.25px" fill-opacity="0"></path><path d="M 0 0 L 11.249 0" fill="#000000" height="1px" id="NJpZrpVkJ" stroke-dasharray="" stroke-linecap="round" stroke-linejoin="round" stroke-width="1.5px" stroke="#000000" transform="translate(9.001 12)" width="11.249062500000008px" fill-opacity="0"></path><path d="M 0 0 L 11.249 0" fill="#000000" height="1px" id="ma3iOa9AO" stroke-dasharray="" stroke-linecap="round" stroke-linejoin="round" stroke-width="1.5px" stroke="#000000" transform="translate(9.001 18)" width="11.249062500000008px" fill-opacity="0"></path><path d="M 0 0 L 1.5 0" fill="#000000" height="1px" id="SPhodNaVe" stroke-dasharray="" stroke-linecap="round" stroke-linejoin="round" stroke-width="1.5px" stroke="#000000" transform="translate(3.75 6)" width="1.5px" fill-opacity="0"></path><path d="M 0 0 L 1.499 0" fill="#000000" height="1px" id="B3VSBz4Qh" stroke-dasharray="" stroke-linecap="round" stroke-linejoin="round" stroke-width="1.5px" stroke="#000000" transform="translate(3.751 12)" width="1.4990625000000009px" fill-opacity="0"></path><path d="M 0 0 L 1.499 0" fill="#000000" height="1px" id="r2IssFbAO" stroke-dasharray="" stroke-linecap="round" stroke-linejoin="round" stroke-width="1.5px" stroke="#000000" transform="translate(3.751 18)" width="1.4990625000000009px" fill-opacity="0"></path></svg></defs><use href="#2628849924"></use></svg>