<svg xmlns:xlink="http://www.w3.org/1999/xlink" xmlns="http://www.w3.org/2000/svg" class="framer-ROtdE framer-1y6uz8w" role="presentation" viewBox="0 0 24 24" style="--1m6trwb: 0; --21h8s6: var(--token-06ca163c-bd22-4ef3-b608-13ad9cff31ab, rgb(26, 22, 21)); --pgex8v: 1.5; opacity: 1;" width="24"  height="24" ><defs><svg display="block" role="presentation" viewBox="0 0 24 24" xmlns="http://www.w3.org/2000/svg" id="3553010246"><path d="M 0 12 L 0 0 L 8.25 0 L 8.25 12 Z" fill-opacity="0" fill="var(--21h8s6, rgb(0, 0, 0))" height="12px" id="GbO9hHCAH" transform="translate(12 6)" width="8.25px"></path><path d="M 0 0 L 8.25 0" fill="#000000" height="1px" id="jvYp9GBno" stroke-dasharray="" stroke-linecap="round" stroke-linejoin="round" stroke-width="1.5px" stroke="#000000" transform="translate(12 12)" width="8.25px" fill-opacity="0"></path><path d="M 0 0 L 8.25 0" fill="#000000" height="1px" id="MQGzJFslJ" stroke-dasharray="" stroke-linecap="round" stroke-linejoin="round" stroke-width="1.5px" stroke="#000000" transform="translate(12 6)" width="8.25px" fill-opacity="0"></path><path d="M 0 0 L 8.25 0" fill="#000000" height="1px" id="jq5PLXyrR" stroke-dasharray="" stroke-linecap="round" stroke-linejoin="round" stroke-width="1.5px" stroke="#000000" transform="translate(12 18)" width="8.25px" fill-opacity="0"></path><path d="M 0 1.5 L 1.5 3 L 4.5 0" fill="#000000" height="3px" id="dCA1z0qa5" stroke-dasharray="" stroke-linecap="round" stroke-linejoin="round" stroke-width="1.5px" stroke="#000000" transform="translate(3.75 4.5)" width="4.5px" fill-opacity="0"></path><path d="M 0 1.5 L 1.5 3 L 4.5 0" fill="#000000" height="3px" id="IMs9QHHWL" stroke-dasharray="" stroke-linecap="round" stroke-linejoin="round" stroke-width="1.5px" stroke="#000000" transform="translate(3.75 10.5)" width="4.5px" fill-opacity="0"></path><path d="M 0 1.5 L 1.5 3 L 4.5 0" fill="#000000" height="3px" id="BgPWziv_R" stroke-dasharray="" stroke-linecap="round" stroke-linejoin="round" stroke-width="1.5px" stroke="#000000" transform="translate(3.75 16.5)" width="4.5px" fill-opacity="0"></path></svg></defs><use href="#3553010246"></use></svg>