<?xml version="1.0" encoding="UTF-8"?>
<svg version="1.1" xmlns="http://www.w3.org/2000/svg" width="736" height="736">
<path d="M0 0 C242.88 0 485.76 0 736 0 C736 242.88 736 485.76 736 736 C493.12 736 250.24 736 0 736 C0 493.12 0 250.24 0 0 Z " fill="#4DE947" transform="translate(0,0)"/>
<path d="M0 0 C242.88 0 485.76 0 736 0 C736 242.88 736 485.76 736 736 C493.12 736 250.24 736 0 736 C0 493.12 0 250.24 0 0 Z M183.5075531 46.8276825 C181.71846294 46.93141103 181.71846294 46.93141103 179.89322954 47.03723508 C173.21140695 47.50773711 167.01248669 48.54670621 160.55906063 50.35444671 C158.24964696 50.9370236 156.18371919 51.21535971 153.8125 51.3125 C149.04988418 51.72473378 144.73127346 53.29842247 140.25 54.875 C139.51628174 55.13192627 138.78256348 55.38885254 138.02661133 55.65356445 C134.05458086 57.09682481 130.60021066 58.75917922 127 61 C125.51239914 61.59451654 124.01157689 62.1568951 122.5 62.6875 C115.89822088 65.25042634 109.73255363 68.84884047 104 73 C104 73.66 104 74.32 104 75 C103.45859375 75.22429687 102.9171875 75.44859375 102.359375 75.6796875 C99.2621559 77.41289951 96.81966332 79.71071547 94.25 82.125 C93.71850342 82.62 93.18700684 83.115 92.6394043 83.625 C91.08691315 85.07709531 89.54226226 86.53705408 88 88 C87.25878906 88.69867188 86.51757812 89.39734375 85.75390625 90.1171875 C74.33691956 101.18959713 66.20491105 113.42371744 60 128 C59.65066406 128.80050781 59.30132812 129.60101563 58.94140625 130.42578125 C44.72636379 164.22107675 45.84738675 202.1113591 45.83995724 238.04658604 C45.83807179 241.98955857 45.83050849 245.93252152 45.82382202 249.87548828 C45.81038126 258.45445309 45.80423746 267.03341314 45.79981136 275.6123867 C45.79702635 280.99049856 45.79278539 286.36860868 45.78830719 291.74671936 C45.77613661 306.70142249 45.76583077 321.65612425 45.7624321 336.61083221 C45.76221253 337.56331582 45.76199297 338.51579942 45.76176675 339.49714616 C45.76154847 340.4516 45.76133019 341.40605384 45.7611053 342.38943052 C45.76066187 344.32277139 45.76021531 346.25611226 45.75976562 348.18945312 C45.7595442 349.1484088 45.75932277 350.10736447 45.75909463 351.09537941 C45.75515032 366.61778686 45.73769751 382.14014726 45.7144061 397.66253656 C45.69056614 413.68250852 45.67822466 429.70245697 45.67706418 445.72244692 C45.67615485 454.68363808 45.67059202 463.64476778 45.65224457 472.60594177 C45.63667193 480.23730511 45.63182255 487.86858793 45.63998267 495.49996418 C45.64382865 499.3764661 45.64326583 503.25280678 45.62892532 507.12928772 C45.44539346 559.78476383 50.43922033 608.0916716 88 648 C88.598125 648.66257812 89.19625 649.32515625 89.8125 650.0078125 C102.44875798 663.46106992 120.96987777 675.7634139 139 680 C140.46307791 680.4859415 141.92146171 680.98622714 143.375 681.5 C151.93805596 684.3494051 160.59721897 686.2126608 169.5 687.625 C170.23903564 687.74810547 170.97807129 687.87121094 171.73950195 687.99804688 C191.05328684 690.89821907 210.89826311 690.1515907 230.37593985 690.14538372 C234.43607507 690.14517697 238.49620351 690.15072407 242.55633545 690.15544128 C250.48387731 690.16368897 258.41141172 690.16649341 266.33895752 690.16705366 C272.79136428 690.16753149 279.24376862 690.16959943 285.69617462 690.17275429 C304.04984652 690.18154362 322.40351261 690.18617619 340.75718662 690.18542381 C342.23621225 690.18536388 342.23621225 690.18536388 343.74511719 690.18530273 C344.73235827 690.18526185 345.71959935 690.18522097 346.73675683 690.18517885 C362.7304014 690.18477253 378.7240224 690.1943431 394.71766016 690.2084411 C411.19851174 690.22285231 427.67935186 690.22970873 444.16020989 690.22884732 C453.38946801 690.22851706 462.61870141 690.23118879 471.8479538 690.24202538 C479.70507373 690.25119297 487.56215773 690.2532547 495.41928074 690.24651595 C499.41624407 690.24328243 503.4131387 690.24307718 507.41009521 690.2518692 C559.28226217 690.35872599 609.62912161 686.49278959 648.3125 648 C665.01062607 630.97578076 676.49403303 610.8799378 683 588 C683.3710083 586.69554932 683.3710083 586.69554932 683.74951172 585.36474609 C685.82410313 577.62191421 686.85942019 569.96898985 687.625 562 C687.74617187 560.81921875 687.86734375 559.6384375 687.9921875 558.421875 C688.34406604 554.94898677 688.68294592 551.47625535 689 548 C689.12245314 546.77023426 689.12245314 546.77023426 689.24738008 545.51562476 C689.99145962 537.53166291 690.14331505 529.62006331 690.13371277 521.6050415 C690.13558516 520.18715599 690.13788755 518.76927099 690.14057809 517.35138679 C690.14664951 513.48724143 690.14656804 509.62311786 690.14538372 505.75896883 C690.14517852 501.57887221 690.15070968 497.39878237 690.15544128 493.21868896 C690.16372255 485.0414056 690.16649497 476.86412944 690.16705366 468.68684223 C690.16752998 462.03585348 690.16959048 455.38486709 690.17275429 448.73387909 C690.18155361 429.84971651 690.18617474 410.96555959 690.18542381 392.08139494 C690.18538386 391.06485688 690.1853439 390.04831881 690.18530273 389.00097656 C690.18526185 387.98318807 690.18522097 386.96539957 690.18517885 385.916769 C690.18477248 369.42575561 690.19434165 352.93476506 690.2084411 336.44375828 C690.22282612 319.48407338 690.22971013 302.52439962 690.22884732 285.56470847 C690.22851611 276.05389423 690.23122998 266.54310395 690.24202538 257.03229523 C690.25115834 248.93467135 690.25328271 240.8370823 690.24651595 232.73945549 C690.24326495 228.61392271 690.24314234 224.48845662 690.2518692 220.3629303 C690.25979834 216.57533241 690.25823828 212.78785339 690.24958507 209.00025818 C690.24735182 207.00447091 690.25482797 205.00867976 690.26282471 203.01290727 C690.22836243 193.84994995 689.27352948 185.05865779 688 176 C687.71063808 173.71000044 687.42369473 171.4196921 687.140625 169.12890625 C685.17643833 154.30189445 683.02212235 139.90224678 675 127 C674.26614688 125.30894715 673.53340201 123.61723145 672.828125 121.9140625 C671.36654169 118.53587466 669.66868797 115.27983499 668 112 C667.34 112 666.68 112 666 112 C665.34 110.02 664.68 108.04 664 106 C663.34 106 662.68 106 662 106 C661.78601563 105.30519531 661.57203125 104.61039063 661.3515625 103.89453125 C659.63456969 100.2173877 657.15122468 97.58188913 654.375 94.6875 C653.83520508 94.11572021 653.29541016 93.54394043 652.73925781 92.95483398 C651.16712139 91.29574727 649.58471379 89.64706318 648 88 C646.86691406 86.80503906 646.86691406 86.80503906 645.7109375 85.5859375 C641.46532648 81.2050082 636.99891111 77.48962449 632 74 C631.3709375 73.54238281 630.741875 73.08476563 630.09375 72.61328125 C615.14060995 62.11732718 594.7816112 51 576 51 C576 50.34 576 49.68 576 49 C564.9339359 45.13974508 552.69783957 45.85199697 541.12342834 45.86628723 C539.66515988 45.86441444 538.20689192 45.86211188 536.74862474 45.85942191 C532.77694861 45.85335456 528.80529369 45.85343149 524.83361399 45.85461628 C520.53533843 45.8548216 516.23706944 45.84928882 511.938797 45.84455872 C503.52768135 45.83627753 495.11657272 45.83350495 486.70545334 45.83294634 C479.85628692 45.83246961 473.00712278 45.83040706 466.15795708 45.82724571 C446.68657161 45.81844309 427.21519164 45.81382528 407.74380416 45.81457619 C406.69566568 45.81461614 405.6475272 45.8146561 404.56762695 45.81469727 C402.99346991 45.81475859 402.99346991 45.81475859 401.38751172 45.81482115 C384.42103058 45.81522666 367.45457173 45.80568009 350.48809702 45.7915589 C333.01528728 45.77713267 315.54248836 45.77029225 298.06967252 45.77115268 C288.28120605 45.77148268 278.4927629 45.76882309 268.70430183 45.75797462 C260.3611656 45.74878662 252.01806323 45.74676113 243.67492408 45.75348405 C239.43221022 45.75670908 235.18956101 45.75695539 230.94685364 45.7481308 C215.10950792 45.71746703 199.31905898 45.85349956 183.5075531 46.8276825 Z " fill="#FEFEFE" transform="translate(0,0)"/>
<path d="M0 0 C0.88365234 0.00902344 1.76730469 0.01804688 2.67773438 0.02734375 C4.84777359 0.05080363 7.01767247 0.08667135 9.1875 0.125 C9.1875 0.785 9.1875 1.445 9.1875 2.125 C10.07695312 2.22554687 10.07695312 2.22554687 10.984375 2.328125 C14.07598935 3.44636849 14.76916201 5.07284007 16.4375 7.875 C17.34435547 9.36966797 17.34435547 9.36966797 18.26953125 10.89453125 C18.90246094 11.96058594 19.53539062 13.02664062 20.1875 14.125 C21.49629175 16.27309709 22.808848 18.41890469 24.125 20.5625 C24.79273438 21.65175781 25.46046875 22.74101562 26.1484375 23.86328125 C28.77011578 28.05696202 31.51579418 32.15930118 34.27734375 36.26171875 C35.9967384 38.83905266 37.6642497 41.43934476 39.3125 44.0625 C41.67243187 47.8045216 44.09628573 51.49495542 46.5625 55.16796875 C47.17722168 56.08392822 47.79194336 56.9998877 48.42529297 57.94360352 C49.6555303 59.77304442 50.88878599 61.6004603 52.12548828 63.42553711 C61.88758402 77.94390817 61.88758402 77.94390817 63.1875 84.125 C63.8475 84.125 64.5075 84.125 65.1875 84.125 C66.66015625 86.2421875 66.66015625 86.2421875 68.25 89 C68.77722656 89.90492188 69.30445313 90.80984375 69.84765625 91.7421875 C73.0617971 97.45829804 73.11406057 102.63621581 71.421875 109.0078125 C67.03930459 121.07531271 60.68291979 132.62302422 53.87109375 143.47265625 C53.32074463 144.35493896 52.77039551 145.23722168 52.20336914 146.14624023 C51.13675654 147.83875971 50.052148 149.52011708 48.94702148 151.18774414 C45.50578182 156.63255755 44.2469358 160.69806538 45.1875 167.125 C47.39081965 176.71523867 52.70269036 184.54232128 58.66685486 192.17021179 C59.67911288 193.47146873 60.67765826 194.78351179 61.66203308 196.10598755 C68.29050071 204.76460914 76.06471254 212.27296162 83.78125 219.94921875 C85.29801397 221.46478795 86.81440553 222.98072994 88.33044434 224.49702454 C91.49438899 227.65941298 94.66163889 230.8184389 97.83154297 233.97485352 C101.87803164 238.00433201 105.91788539 242.04038283 109.95549774 246.07875347 C113.08144829 249.2044311 116.21000587 252.32748826 119.33943176 255.44968605 C120.82944088 256.93653213 122.31886196 258.42396776 123.80766296 259.91202354 C125.89337119 261.99554412 127.98235119 264.0757289 130.07226562 266.1550293 C130.67613602 266.75935287 131.28000641 267.36367645 131.9021759 267.98631287 C136.17207349 272.22481278 140.63267315 276.19638526 145.1875 280.125 C146.24486646 281.05964256 147.30112334 281.99554455 148.35546875 282.93359375 C163.08063255 296.23766607 163.08063255 296.23766607 181.4140625 301.08984375 C187.12085826 300.26828456 191.64219375 297.55760518 196.5625 294.6875 C198.49933535 293.59517482 200.43684865 292.50405096 202.375 291.4140625 C203.82712891 290.58890137 203.82712891 290.58890137 205.30859375 289.74707031 C209.6884007 287.27934326 214.1178857 284.91095851 218.5625 282.5625 C219.3157959 282.15781494 220.0690918 281.75312988 220.84521484 281.33618164 C229.46200761 276.77667944 237.25939599 273.36558916 247.1875 275.125 C252.83614889 277.10713801 258.02602951 280.13104659 263.1875 283.125 C263.8155957 283.48835449 264.44369141 283.85170898 265.09082031 284.22607422 C268.20621014 286.04461536 271.29387616 287.90427924 274.3671875 289.79296875 C277.60616023 291.78252817 280.88151988 293.70120668 284.17089844 295.60595703 C338.3346835 327.03825221 338.3346835 327.03825221 344.1875 341.125 C346.57576772 354.2712304 338.29927779 366.68877207 331.203125 377.01171875 C329.23510479 379.74635148 327.2250593 382.44187736 325.1875 385.125 C324.58808594 385.93066406 323.98867188 386.73632812 323.37109375 387.56640625 C321.68711506 389.79287471 319.96118471 391.96948038 318.1875 394.125 C317.6925 394.72957031 317.1975 395.33414062 316.6875 395.95703125 C306.64751092 407.07631916 292.83319377 411.57310573 278.29296875 412.46875 C258.00221732 413.26972522 237.88679434 408.89163813 219.1875 401.125 C218.48141602 400.83254395 217.77533203 400.54008789 217.04785156 400.23876953 C211.70129521 397.99340605 206.43195134 395.59861292 201.1875 393.125 C199.99036377 392.56039062 199.99036377 392.56039062 198.76904297 391.984375 C156.08150098 371.65294004 118.42128936 342.79726693 85.34082031 309.24194336 C81.0245487 304.87972655 76.65178738 300.67460813 71.99438477 296.67797852 C69.37679109 294.42821316 66.84955574 292.09027579 64.3125 289.75 C60.53551274 286.27517172 56.74941423 282.81158729 52.9375 279.375 C52.1228125 278.64023437 51.308125 277.90546875 50.46875 277.1484375 C49.09013288 275.925623 47.69786878 274.71764288 46.28125 273.5390625 C35.33916397 264.40520256 26.04525363 253.2347249 17.1875 242.125 C16.16996327 240.93467402 15.14973329 239.74663624 14.125 238.5625 C12.1875 236.125 12.1875 236.125 12.1875 234.125 C11.5275 234.125 10.8675 234.125 10.1875 234.125 C8.7635131 232.40980923 7.4211784 230.6262088 6.125 228.8125 C5.41214844 227.82636719 4.69929688 226.84023438 3.96484375 225.82421875 C2.1875 223.125 2.1875 223.125 1.1875 220.125 C0.5275 220.125 -0.1325 220.125 -0.8125 220.125 C-2.2578125 218.10546875 -2.2578125 218.10546875 -3.9375 215.3125 C-6.28132441 211.51636722 -8.68755415 207.87264332 -11.375 204.3125 C-15.48128325 198.74370491 -19.21517078 192.95598264 -22.9375 187.125 C-23.81643921 185.75444458 -23.81643921 185.75444458 -24.71313477 184.35620117 C-28.19977533 178.85866093 -31.43022313 173.27643602 -34.50830078 167.54052734 C-35.99247781 164.79166034 -37.57375258 162.11206107 -39.1875 159.4375 C-46.20990017 147.40795799 -51.75654867 135.30500531 -56.14306641 122.08984375 C-57.51900011 118.05136291 -59.04924203 114.06679746 -60.60986328 110.09643555 C-65.40685519 97.73380829 -66.10551232 85.33451409 -66.1875 72.1875 C-66.20127686 70.95555908 -66.21505371 69.72361816 -66.22924805 68.4543457 C-66.13213204 49.32508173 -57.7693463 34.5452137 -44.47998047 21.29833984 C-35.8625577 13.03182231 -25.70374902 6.97637926 -14.8125 2.125 C-14.09835938 1.75503906 -13.38421875 1.38507813 -12.6484375 1.00390625 C-8.43912674 -0.30063221 -4.3770233 -0.08486399 0 0 Z " fill="#FDFEFD" transform="translate(230.8125,157.875)"/>
<path d="M0 0 C0.99 0.33 1.98 0.66 3 1 C2.67 1.66 2.34 2.32 2 3 C-1.03280398 3.63322281 -3.99918738 4.13521876 -7.0625 4.5625 C-7.87783203 4.68818359 -8.69316406 4.81386719 -9.53320312 4.94335938 C-22.45774783 6.82347212 -35.50523485 7.15030865 -48.54534912 7.12698364 C-49.93083749 7.1281399 -51.31632555 7.12973077 -52.70181298 7.13171089 C-56.45798844 7.1358352 -60.21413807 7.13384518 -63.97031355 7.13072467 C-68.04134758 7.12844221 -72.11237747 7.13196428 -76.18341064 7.13470459 C-84.13957128 7.13913152 -92.09572244 7.13819942 -100.05188343 7.13529195 C-106.52539632 7.13302515 -112.99890657 7.13273091 -119.47241974 7.13381577 C-120.85928836 7.13404561 -120.85928836 7.13404561 -122.27417453 7.13428011 C-124.15302736 7.13459987 -126.03188019 7.13492408 -127.91073301 7.1352527 C-145.49541059 7.13809865 -163.08008294 7.1348347 -180.66475967 7.12945233 C-195.71498563 7.12498807 -210.76520387 7.12575883 -225.81542969 7.13037109 C-243.33491526 7.13573765 -260.85439625 7.13782092 -278.37388253 7.13475883 C-280.24669409 7.13444032 -282.11950564 7.13412595 -283.9923172 7.13381577 C-284.9135242 7.13366149 -285.83473121 7.13350721 -286.78385358 7.13334826 C-293.2387745 7.13248912 -299.6936925 7.133933 -306.14861298 7.13629532 C-314.03082349 7.13911682 -321.91302406 7.13830604 -329.79523346 7.13301457 C-333.8078559 7.13040857 -337.82046184 7.12931905 -341.83308411 7.13266373 C-357.91248689 7.14500673 -373.94817316 7.06788212 -390 6 C-390 5.34 -390 4.68 -390 4 C-389.19880694 3.99826375 -388.39761388 3.9965275 -387.57214224 3.99473864 C-340.13309776 3.89180847 -292.69406746 3.78371725 -245.25505022 3.66888306 C-239.56456482 3.65511276 -233.87407932 3.64138577 -228.18359375 3.62768555 C-226.48421618 3.62359309 -226.48421618 3.62359309 -224.75050776 3.61941796 C-206.38369616 3.57529023 -188.01687839 3.53467479 -169.65005596 3.49534739 C-150.81725014 3.4549444 -131.98445584 3.41079014 -113.151667 3.36312145 C-101.52200297 3.33380418 -89.89233985 3.30744608 -78.26266085 3.28482103 C-70.29798127 3.26904635 -62.33331581 3.24964242 -54.36865188 3.22733159 C-49.76699931 3.21455014 -45.16535766 3.2034195 -40.56369209 3.19658089 C-36.35694001 3.19029401 -32.15022551 3.17948502 -27.94349401 3.1649667 C-26.41588176 3.16051303 -24.88826346 3.15776769 -23.36064501 3.15683801 C-21.2954123 3.15533977 -19.23029 3.14780529 -17.16507912 3.1386652 C-16.01452652 3.13600716 -14.86397392 3.13334911 -13.67855608 3.13061053 C-11.02753426 3.1817342 -11.02753426 3.1817342 -9 2 C-7.45976004 1.93049459 -5.91665012 1.91547643 -4.375 1.9375 C-3.14910156 1.95103516 -3.14910156 1.95103516 -1.8984375 1.96484375 C-1.27195312 1.97644531 -0.64546875 1.98804688 0 2 C0 1.34 0 0.68 0 0 Z " fill="#20C54B" transform="translate(570,683)"/>
<path d="M0 0 C4.3208278 0.00671494 8.64164624 0.00159954 12.96247566 -0.0018822 C21.37693357 -0.00686682 29.79135149 -0.00135756 38.20580442 0.00796811 C48.0288891 0.0184564 57.85196561 0.01827925 67.67505484 0.01779553 C85.20337033 0.01729745 102.73166741 0.02639093 120.25997627 0.04097974 C137.23296144 0.0550988 154.20593045 0.06214874 171.17892158 0.06148756 C172.22706006 0.0614476 173.27519854 0.06140764 174.35509879 0.06136648 C175.92471847 0.06130594 175.92471847 0.06130594 177.52604765 0.06124419 C196.92362813 0.06055355 216.32120182 0.06644413 235.71878009 0.07539741 C242.55385802 0.0784041 249.38893469 0.07947577 256.22401321 0.07992971 C264.5485537 0.08061347 272.8730827 0.08510165 281.19761831 0.09426252 C285.43832432 0.09886051 289.67901568 0.10193336 293.91972435 0.10066831 C297.80819274 0.09956458 301.69662889 0.10314403 305.58509057 0.11031684 C306.98414556 0.11211359 308.38320392 0.11227688 309.78225899 0.11054955 C333.54600221 0.08447898 333.54600221 0.08447898 342.61129463 3.24679029 C342.61129463 3.90679029 342.61129463 4.56679029 342.61129463 5.24679029 C350.53129463 6.73179029 350.53129463 6.73179029 358.61129463 8.24679029 C358.61129463 8.57679029 358.61129463 8.90679029 358.61129463 9.24679029 C353.49337821 9.35341355 348.68201364 8.95847015 343.61129463 8.24679029 C343.61129463 7.58679029 343.61129463 6.92679029 343.61129463 6.24679029 C342.97063056 6.26999341 342.3299665 6.29319654 341.66988838 6.31710279 C340.80492744 6.33514966 339.9399665 6.35319654 339.04879463 6.37179029 C337.77842353 6.40659498 337.77842353 6.40659498 336.48238838 6.44210279 C333.61129463 6.24679029 333.61129463 6.24679029 330.48238838 5.27413404 C325.50169366 3.74474146 320.40847407 3.82127954 315.23629463 3.68429029 C313.24922141 3.62348792 311.26223639 3.55972496 309.27535713 3.49288404 C307.96752265 3.45699171 307.96752265 3.45699171 306.63326728 3.42037427 C304.33011274 3.28807965 302.03322984 3.04149222 299.74555671 2.74387777 C293.64792724 2.0607153 287.57042727 2.10853246 281.44112861 2.11980665 C280.13305212 2.11824666 278.82497564 2.11668667 277.47726047 2.1150794 C273.86645772 2.11092284 270.25568156 2.11296011 266.64487875 2.11606562 C262.74298604 2.11833451 258.84109781 2.1148327 254.939206 2.1120857 C247.30328113 2.10764495 239.66736611 2.10859694 232.03144085 2.11149834 C225.82416107 2.11375903 219.61688403 2.11406201 213.40960395 2.11297452 C212.52530627 2.11282129 211.64100859 2.11266806 210.72991401 2.11251018 C208.9333394 2.11219045 207.13676478 2.11186624 205.34019017 2.11153759 C188.50364497 2.10868776 171.66710523 2.11196203 154.83056092 2.11733796 C140.39190953 2.12180554 125.95326618 2.12102947 111.51461494 2.1164192 C94.73727652 2.11106466 77.95994287 2.10896241 61.18260372 2.11203146 C59.39273091 2.11235 57.60285811 2.11266437 55.8129853 2.11297452 C54.93239131 2.1131288 54.05179733 2.11328308 53.14451867 2.11344203 C46.94650231 2.11430454 40.74848899 2.11285001 34.55047309 2.11049497 C26.99459656 2.10768703 19.43873041 2.10845624 11.88285506 2.11377572 C8.02961472 2.11639928 4.17639167 2.11744058 0.32315147 2.11412656 C-3.85742713 2.11058546 -8.03796224 2.11482096 -12.21853936 2.11980665 C-13.43128816 2.11757593 -14.64403697 2.1153452 -15.89353573 2.11304688 C-22.1481502 2.12751862 -28.18638615 2.43962811 -34.38870537 3.24679029 C-36.16997316 3.34436504 -37.95283784 3.41927381 -39.73636162 3.45772779 C-51.29420227 3.78522506 -62.10296618 4.71080417 -73.38870537 7.24679029 C-74.70445086 7.51438293 -76.02087003 7.77868331 -77.33792412 8.03975904 C-84.59692879 9.46421229 -84.59692879 9.46421229 -91.38870537 12.24679029 C-92.7216956 12.58149308 -94.0550953 12.91456587 -95.38870537 13.24679029 C-97.86356171 14.15461005 -100.31435237 15.08774574 -102.76370537 16.05929029 C-103.41081475 16.30743482 -104.05792412 16.55557935 -104.72464287 16.81124341 C-109.86354316 18.84711823 -114.4363423 21.29442722 -118.38870537 25.24679029 C-119.90464287 25.98929029 -119.90464287 25.98929029 -121.45120537 26.74679029 C-124.4747722 27.92459141 -124.4747722 27.92459141 -125.38870537 30.24679029 C-126.24851006 30.64768873 -127.10831475 31.04858716 -127.99417412 31.46163404 C-132.22145866 33.68472844 -135.27234104 36.52305759 -138.70120537 39.80929029 C-139.35838555 40.43190748 -140.01556572 41.05452466 -140.69266045 41.69600904 C-151.12441426 51.58496427 -151.12441426 51.58496427 -159.38870537 63.24679029 C-159.38870537 64.23679029 -159.38870537 65.22679029 -159.38870537 66.24679029 C-161.03414317 67.9344188 -162.70159114 69.60082519 -164.38870537 71.24679029 C-164.71870537 72.23679029 -165.04870537 73.22679029 -165.38870537 74.24679029 C-165.86308037 74.71987623 -166.33745537 75.19296216 -166.82620537 75.68038404 C-171.41041847 80.27605767 -173.01017219 87.8934426 -174.67776787 93.98507154 C-175.38870537 96.24679029 -175.38870537 96.24679029 -176.40433037 98.26632154 C-177.45647321 100.38313273 -178.00414935 102.3166559 -178.51370537 104.62179029 C-178.6812835 105.35139966 -178.84886162 106.08100904 -179.02151787 106.83272779 C-179.46905163 109.30093846 -179.46905163 109.30093846 -179.31839287 112.04366529 C-179.40373576 115.93150792 -180.32467857 119.41207523 -181.38870537 123.12179029 C-181.57948662 123.81014966 -181.77026787 124.49850904 -181.96683037 125.20772779 C-182.43394265 126.889332 -182.91036958 128.56834414 -183.38870537 130.24679029 C-183.71870537 130.24679029 -184.04870537 130.24679029 -184.38870537 130.24679029 C-184.1059371 111.60979047 -179.37744294 93.38964909 -170.72464287 76.84444654 C-169.78710883 75.02146368 -168.90047704 73.17183141 -168.05276787 71.30538404 C-164.54273231 63.7132353 -160.17213393 58.23386069 -154.38870537 52.24679029 C-153.23461441 50.92059805 -152.08824089 49.58763406 -150.95120537 48.24679029 C-145.0103109 41.4354857 -138.6353076 34.68174196 -131.38870537 29.24679029 C-130.72870537 29.24679029 -130.06870537 29.24679029 -129.38870537 29.24679029 C-129.38870537 28.58679029 -129.38870537 27.92679029 -129.38870537 27.24679029 C-119.57436737 19.16299981 -106.91862657 14.4398284 -95.08792412 10.22725904 C-92.7856614 9.39098126 -90.52992265 8.48658479 -88.26370537 7.55929029 C-84.82503917 6.25760895 -81.61796088 5.86355788 -77.96826571 5.57546288 C-75.18526678 5.22086933 -72.63711473 4.54443326 -69.93605244 3.78881013 C-63.26202783 2.09007729 -56.74279238 1.47229949 -49.88115227 1.07447278 C-47.93908893 0.95481783 -47.93908893 0.95481783 -45.95779198 0.83274561 C-30.64838932 -0.05420685 -15.32966317 -0.03188482 0 0 Z " fill="#A1F58D" transform="translate(233.38870537281036,45.753209710121155)"/>
<path d="M0 0 C2.0980507 3.44528822 2.249682 6.13597313 2.24888897 10.13450623 C2.25578716 12.03423612 2.25578716 12.03423612 2.26282471 13.9723444 C2.25780951 15.38057075 2.25260725 16.78879644 2.24723816 18.19702148 C2.24882594 19.69080181 2.25128923 21.18458143 2.25455457 22.67835903 C2.26097981 26.78900376 2.25489085 30.89955029 2.24679029 35.01018858 C2.24022204 39.4410506 2.24515986 43.87190148 2.24867249 48.30276489 C2.253719 56.98513765 2.24806717 65.66747237 2.23882218 74.3498404 C2.22844828 84.45492204 2.22850811 94.55999542 2.22899476 104.66508138 C2.22949563 122.69176803 2.22032719 140.71843694 2.20581055 158.74511719 C2.19172264 176.24837568 2.18463976 193.75161857 2.18530273 211.25488281 C2.18534269 212.3328627 2.18538265 213.4108426 2.18542381 214.52148855 C2.18546417 215.59758087 2.18550452 216.6736732 2.1855461 217.78237438 C2.18623557 237.69266007 2.180348 257.6029391 2.17139288 277.51322263 C2.1683736 284.56162089 2.16731297 291.61001792 2.16686058 298.65841675 C2.16617913 307.24478705 2.16172407 315.83114615 2.15252777 324.4175117 C2.14790399 328.8007157 2.14486642 333.18390536 2.14612198 337.56711197 C2.14721477 341.57642408 2.14371238 345.58570444 2.13647345 349.59500992 C2.13465609 351.0485174 2.13453374 352.50202815 2.13624074 353.95553577 C2.1382988 355.92552233 2.13364998 357.89551253 2.12863445 359.86549377 C2.12793003 360.96147668 2.1272256 362.05745958 2.12649983 363.18665409 C2.0154785 365.65575941 1.6414706 367.6343067 1 370 C0.84716335 372.85578115 0.72610393 375.70506136 0.625 378.5625 C0.31437497 385.71047915 -0.62035333 392.20528562 -3 399 C-4.16296548 395.46526717 -3.90176783 392.57852786 -3.4765625 388.90625 C-3.3425 387.71 -3.2084375 386.51375 -3.0703125 385.28125 C-2.92335938 384.0334375 -2.77640625 382.785625 -2.625 381.5 C-2.34495994 379.05224244 -2.06630192 376.60432635 -1.7890625 374.15625 C-1.66225098 373.07150391 -1.53543945 371.98675781 -1.40478516 370.86914062 C-0.32796981 360.57639656 0.14331296 350.42999886 0.12025452 340.07977295 C0.12069148 338.60511197 0.12156869 337.13045106 0.12284368 335.65579057 C0.12506401 331.63533397 0.12110135 327.61490436 0.11606562 323.59445119 C0.11172569 319.24697326 0.11321005 314.8994967 0.1139679 310.55201721 C0.11449089 303.03023674 0.11136755 295.50846498 0.10573006 287.98668671 C0.09758463 277.11161128 0.09499672 266.23654005 0.09374207 255.36146191 C0.09155632 237.71509331 0.0849092 220.06872936 0.07543945 202.42236328 C0.06625297 185.28597029 0.05917819 168.14957855 0.05493164 151.01318359 C0.05466892 149.95595285 0.05440619 148.8987221 0.05413551 147.80945405 C0.05283042 142.50535638 0.05156673 137.2012587 0.05032361 131.89716101 C0.03996587 87.93143746 0.02236056 43.96571897 0 0 Z " fill="#E6FFE4" transform="translate(689,181)"/>
<path d="M0 0 C0.33 0 0.66 0 1 0 C0.99886084 0.71574251 0.99772168 1.43148502 0.996548 2.1689167 C0.9292045 44.72480246 0.87783515 87.28068197 0.84680401 129.83661044 C0.84305253 134.9626883 0.8391695 140.08876605 0.83520508 145.21484375 C0.83441815 146.2352213 0.83363122 147.25559885 0.83282044 148.30689692 C0.81981734 164.76200516 0.79619205 181.21708148 0.76854161 197.67217088 C0.74034475 214.59538912 0.7237938 231.51859082 0.71773452 248.44183159 C0.71364745 258.85842864 0.70080782 269.27493548 0.6762506 279.69150472 C0.66021642 286.86446754 0.65563891 294.03738472 0.65949587 301.2103641 C0.6613904 305.32973202 0.65878931 309.44894396 0.64238358 313.56828308 C0.5711623 332.35274218 1.33203025 350.77552073 3.35572338 369.45663452 C3.87807298 374.34763828 4.14623221 379.08502601 4 384 C1.31689279 378.81265939 0.87185752 374.59408748 0.9375 368.8125 C0.94201172 368.06291016 0.94652344 367.31332031 0.95117188 366.54101562 C0.96293646 364.69397617 0.98087135 362.84697787 1 361 C0.34 361 -0.32 361 -1 361 C-1.02290723 317.17697287 -1.040519 273.35394637 -1.05106533 229.53091442 C-1.05231598 224.352885 -1.05361031 219.17485558 -1.05493164 213.99682617 C-1.05519395 212.96600812 -1.05545626 211.93519006 -1.05572652 210.8731351 C-1.06007346 194.19962849 -1.06795565 177.52612533 -1.0771528 160.85262077 C-1.08651646 143.7339907 -1.09206136 126.61536244 -1.09408849 109.49672991 C-1.09545808 98.9403905 -1.09977812 88.38406087 -1.10791647 77.82772446 C-1.1132174 70.58107286 -1.11479669 63.33442629 -1.11350138 56.0877729 C-1.11286322 51.91183345 -1.11381606 47.73591106 -1.11920547 43.55997467 C-1.12411586 39.72695488 -1.12428918 35.89396341 -1.12089889 32.06094224 C-1.12028449 30.03799886 -1.12455758 28.01505576 -1.12908131 25.99211735 C-1.11504396 17.28423275 -0.67547002 8.67798899 0 0 Z " fill="#E3FEE1" transform="translate(46,192)"/>
<path d="M0 0 C0.66 0.33 1.32 0.66 2 1 C1 3 1 3 -1.60546875 4.21484375 C-5.83275328 6.43793815 -8.88363567 9.2762673 -12.3125 12.5625 C-13.29827026 13.49642578 -13.29827026 13.49642578 -14.30395508 14.44921875 C-24.73570889 24.33817398 -24.73570889 24.33817398 -33 36 C-33 36.99 -33 37.98 -33 39 C-34.6454378 40.68762851 -36.31288577 42.3540349 -38 44 C-38.33 44.99 -38.66 45.98 -39 47 C-39.474375 47.47308594 -39.94875 47.94617188 -40.4375 48.43359375 C-45.0217131 53.02926738 -46.62146682 60.64665231 -48.2890625 66.73828125 C-49 69 -49 69 -50.015625 71.01953125 C-51.06776784 73.13634244 -51.61544398 75.06986561 -52.125 77.375 C-52.29257812 78.10460937 -52.46015625 78.83421875 -52.6328125 79.5859375 C-53.08034626 82.05414817 -53.08034626 82.05414817 -52.9296875 84.796875 C-53.01503039 88.68471763 -53.9359732 92.16528494 -55 95.875 C-55.19078125 96.56335938 -55.3815625 97.25171875 -55.578125 97.9609375 C-56.04523728 99.64254171 -56.5216642 101.32155385 -57 103 C-57.33 103 -57.66 103 -58 103 C-57.71723173 84.36300018 -52.98873756 66.1428588 -44.3359375 49.59765625 C-43.39840346 47.77467339 -42.51177166 45.92504112 -41.6640625 44.05859375 C-38.15402694 36.46644501 -33.78342855 30.9870704 -28 25 C-26.84590904 23.67380776 -25.69953552 22.34084378 -24.5625 21 C-8.74821429 2.91607143 -8.74821429 2.91607143 0 0 Z " fill="#9CF68B" transform="translate(107,73)"/>
<path d="M0 0 C5.22179457 9.09752074 3.13828506 22.52020632 3.11352539 32.78417969 C3.11324273 34.44110106 3.11340279 36.09802255 3.1139679 37.75494385 C3.11425279 42.21691203 3.10840612 46.6788529 3.10139394 51.14081478 C3.09510886 55.8172841 3.09455254 60.49375416 3.09336853 65.17022705 C3.09027034 74.00965884 3.08207746 82.84907815 3.07201904 91.68850446 C3.06081078 101.75872244 3.05533561 111.82894105 3.05032361 121.89916372 C3.03989348 142.59944943 3.02232351 163.29972393 3 184 C2.67 184 2.34 184 2 184 C1.99576806 183.22400703 1.99153612 182.44801407 1.98717594 181.64850616 C1.88379512 162.75213057 1.77514635 143.85579195 1.66066074 124.95948029 C1.60542256 115.82130688 1.55195624 106.68312957 1.50268555 97.54492188 C1.45972826 89.5784968 1.4134216 81.61209937 1.36312145 73.64571714 C1.33661327 69.42902734 1.31176299 65.21234269 1.29092598 60.99562073 C1.27124225 57.0230077 1.24706463 53.05044684 1.21950912 49.07788086 C1.21020048 47.62349909 1.20250343 46.16910592 1.19658089 44.71470642 C1.1672356 37.72119982 1.04714566 30.91855786 0 24 C-0.07331643 21.99065694 -0.1085837 19.97940049 -0.09765625 17.96875 C-0.09443359 16.91171875 -0.09121094 15.8546875 -0.08789062 14.765625 C-0.07951172 13.68796875 -0.07113281 12.6103125 -0.0625 11.5 C-0.05798828 10.39140625 -0.05347656 9.2828125 -0.04882812 8.140625 C-0.03713158 5.42702601 -0.02074086 2.71354239 0 0 Z " fill="#74E16A" transform="translate(687,176)"/>
<path d="M0 0 C-0.93851939 2.34629848 -1.53190902 3.71787744 -3.73046875 5.04296875 C-7.19260119 6.50290411 -10.79338791 7.25487501 -14.44140625 8.12109375 C-17.04292516 8.79919313 -17.04292516 8.79919313 -18.578125 10.625 C-20 12 -20 12 -21.98046875 12.00390625 C-22.70878906 11.85824219 -23.43710937 11.71257813 -24.1875 11.5625 C-27.59029757 11.0313316 -29.95289702 11.06148202 -33.25 12.0625 C-37.56146833 13.14036708 -38.07906492 12.57175415 -42 11 C-44.41049278 10.76004144 -46.82964161 10.59960323 -49.25 10.5 C-55.07753942 10.17498068 -60.39611857 9.64251697 -66 8 C-66.33 7.34 -66.66 6.68 -67 6 C-65.31229485 6.14343968 -63.62484514 6.28988569 -61.9375 6.4375 C-60.99777344 6.51871094 -60.05804688 6.59992187 -59.08984375 6.68359375 C-56.97980306 6.89966618 -54.87562212 7.18011879 -52.78125 7.515625 C-38.07869155 9.39901059 -20.40375826 9.74358873 -7.30859375 1.859375 C-4 0 -4 0 0 0 Z " fill="#39D13F" transform="translate(541,561)"/>
<path d="M0 0 C4.39581876 -0.02950823 8.7916114 -0.04696682 13.1875 -0.0625 C15.02731445 -0.07506836 15.02731445 -0.07506836 16.90429688 -0.08789062 C38.98106342 -0.14614067 38.98106342 -0.14614067 48 3 C48 3.66 48 4.32 48 5 C53.28 5.99 58.56 6.98 64 8 C64 8.33 64 8.66 64 9 C58.88208358 9.10662326 54.07071901 8.71167986 49 8 C49 7.34 49 6.68 49 6 C48.03900391 6.03480469 48.03900391 6.03480469 47.05859375 6.0703125 C46.19363281 6.08835937 45.32867188 6.10640625 44.4375 6.125 C43.16712891 6.15980469 43.16712891 6.15980469 41.87109375 6.1953125 C39 6 39 6 35.875 5.02734375 C30.87474616 3.49152719 25.75480425 3.5744032 20.5625 3.4375 C6.67901729 3.0162452 6.67901729 3.0162452 1 2 C0.67 1.34 0.34 0.68 0 0 Z " fill="#B9F9A9" transform="translate(528,46)"/>
<path d="M0 0 C1 3 1 3 -0.08203125 5.64453125 C-8.50581436 21.0659491 -18.87463389 36.24516751 -33 47 C-34.32 46.01 -35.64 45.02 -37 44 C-35.39125 43.4121875 -35.39125 43.4121875 -33.75 42.8125 C-30.07482568 41.24165937 -28.27387968 39.32960953 -26 36 C-22.88997369 31.80822541 -19.69608766 27.69608766 -16 24 C-15.01 24 -14.02 24 -13 24 C-12.01 20.535 -12.01 20.535 -11 17 C-10.34 17 -9.68 17 -9 17 C-9 15.68 -9 14.36 -9 13 C-7.33333333 11.33333333 -5.66666667 9.66666667 -4 8 C-2.4899029 5.40919443 -1.21673952 2.73936328 0 0 Z " fill="#2BCD35" transform="translate(674,607)"/>
<path d="M0 0 C0.99 0 1.98 0 3 0 C1.45422155 4.33424154 -1.85372392 6.57304914 -5.4375 9.1875 C-6.08984619 9.66509766 -6.74219238 10.14269531 -7.41430664 10.63476562 C-17.25507434 17.57387186 -32.69035036 27 -45 27 C-44.505 25.515 -44.505 25.515 -44 24 C-43.113125 23.87625 -42.22625 23.7525 -41.3125 23.625 C-38.05698511 23.12328373 -38.05698511 23.12328373 -35.375 21.9375 C-33 21 -33 21 -29 21 C-29 20.34 -29 19.68 -29 19 C-27.5437455 18.32880451 -26.08492133 17.66318193 -24.625 17 C-23.81289063 16.62875 -23.00078125 16.2575 -22.1640625 15.875 C-20 15 -20 15 -18 15 C-18.66 13.68 -19.32 12.36 -20 11 C-16.02022924 10.1558062 -12.02992782 9.55312735 -8 9 C-7.67 7.35 -7.34 5.7 -7 4 C-4.69 3.34 -2.38 2.68 0 2 C0 1.34 0 0.68 0 0 Z " fill="#1ACF25" transform="translate(636,654)"/>
<path d="M0 0 C3.6708638 1.27547969 6.04094096 2.66419781 8.77734375 5.4140625 C9.79538086 6.43306641 9.79538086 6.43306641 10.83398438 7.47265625 C11.52814453 8.18292969 12.22230469 8.89320312 12.9375 9.625 C13.62779297 10.31207031 14.31808594 10.99914062 15.02929688 11.70703125 C27 23.80254739 27 23.80254739 27 28 C27.66 28 28.32 28 29 28 C29.66 29.98 30.32 31.96 31 34 C31.66 34 32.32 34 33 34 C36.53320008 40.22026163 39.63695106 46.24843159 42 53 C42.53625 54.19625 43.0725 55.3925 43.625 56.625 C44.92234136 59.80938333 45.58539434 62.60023359 46 66 C45.34 66 44.68 66 44 66 C43.51787786 64.43840941 43.03944127 62.87568072 42.5625 61.3125 C42.29566406 60.44238281 42.02882813 59.57226562 41.75390625 58.67578125 C41.03655471 56.12974079 40.482459 53.5996577 40 51 C39.34 51 38.68 51 38 51 C37.731875 49.948125 37.46375 48.89625 37.1875 47.8125 C36.12553785 44.40304258 35.04590182 41.89836091 33 39 C32.01 38.505 32.01 38.505 31 38 C30.09071052 36.11406627 29.18305195 34.22732236 28.28515625 32.3359375 C26.37679499 28.86724439 23.91166485 25.92288997 21.390625 22.8828125 C20 21 20 21 20 19 C19.34 19 18.68 19 18 19 C16.66015625 17.56640625 16.66015625 17.56640625 15.0625 15.5625 C11.23917672 11.01825347 6.84760677 7.50407306 2.16015625 3.8828125 C1.44730469 3.26148437 0.73445312 2.64015625 0 2 C0 1.34 0 0.68 0 0 Z " fill="#96F385" transform="translate(635,78)"/>
<path d="M0 0 C0.66 0 1.32 0 2 0 C5 4.38461538 5 4.38461538 5 7 C5.99 7.33 6.98 7.66 8 8 C8.28875 8.7425 8.5775 9.485 8.875 10.25 C9.86437816 13.20425368 9.86437816 13.20425368 12.5625 15.4375 C15.40652039 18.42736759 15.38477675 20.04499341 16 24 C17.95163118 25.43637698 17.95163118 25.43637698 20 26 C20 26.99 20 27.98 20 29 C20.99 29.33 21.98 29.66 23 30 C23.70381157 31.98723268 24.3711811 33.98777953 25 36 C25.66 36.33 26.32 36.66 27 37 C27 37.66 27 38.32 27 39 C28.485 39.495 28.485 39.495 30 40 C30.33 41.65 30.66 43.3 31 45 C31.33 45 31.66 45 32 45 C32 46.98 32 48.96 32 51 C25 41.9 25 41.9 25 39 C24.34 39 23.68 39 23 39 C22.38125 37.845 21.7625 36.69 21.125 35.5 C15.14138311 24.7362699 8.38491707 14.39235006 1.3984375 4.2578125 C0 2 0 2 0 0 Z " fill="#82EE76" transform="translate(271,203)"/>
<path d="M0 0 C5.35038339 1.50215811 9.67509802 4.00655449 14.375 6.875 C19.81654366 10.17320182 25.27318894 13.22062217 31 16 C31 16.99 31 17.98 31 19 C28.36 18.67 25.72 18.34 23 18 C22.67 16.68 22.34 15.36 22 14 C20.68 13.67 19.36 13.34 18 13 C18 12.34 18 11.68 18 11 C14.535 12.485 14.535 12.485 11 14 C10.67 12.68 10.34 11.36 10 10 C9.01 10.33 8.02 10.66 7 11 C7 9.02 7 7.04 7 5 C4.69 5 2.38 5 0 5 C-0.33 4.01 -0.66 3.02 -1 2 C-0.67 1.34 -0.34 0.68 0 0 Z " fill="#39D140" transform="translate(393,530)"/>
<path d="M0 0 C0.66 0.99 1.32 1.98 2 3 C1.67 3.33 1.34 3.66 1 4 C1.66 4.66 2.32 5.32 3 6 C2.01 6.66 1.02 7.32 0 8 C0 8.66 0 9.32 0 10 C-0.825 10.474375 -1.65 10.94875 -2.5 11.4375 C-3.325 11.953125 -4.15 12.46875 -5 13 C-5 13.99 -5 14.98 -5 16 C-5.66 16 -6.32 16 -7 16 C-6.67 16.99 -6.34 17.98 -6 19 C-6.66 19 -7.32 19 -8 19 C-8.33 19.99 -8.66 20.98 -9 22 C-10.64333504 23.03789581 -12.31243867 24.03567924 -14 25 C-15.75149165 26.58245275 -15.75149165 26.58245275 -17 28 C-17.66 27.67 -18.32 27.34 -19 27 C-18.30777344 26.05253906 -18.30777344 26.05253906 -17.6015625 25.0859375 C-13.56675234 19.55202792 -9.55248186 14.0038067 -5.5625 8.4375 C-5.12566895 7.83019043 -4.68883789 7.22288086 -4.23876953 6.59716797 C-1.94228376 3.40824311 -1.94228376 3.40824311 0 0 Z " fill="#37D73B" transform="translate(564,530)"/>
<path d="M0 0 C0.6875 1.6875 0.6875 1.6875 1 4 C0.5875 4.680625 0.175 5.36125 -0.25 6.0625 C-2.39856694 9.66902308 -3.21273445 13.17863703 -4.23828125 17.2265625 C-4.90552478 19.6560133 -5.71216097 21.87049743 -6.6875 24.1875 C-7.96597128 27.43586069 -8.01611985 29.9995373 -7.83984375 33.50390625 C-8.22008124 39.43004664 -10.34151645 45.31377068 -12 51 C-12.33 51 -12.66 51 -13 51 C-12.73924808 33.81407781 -9.2330438 14.76243726 0 0 Z " fill="#96F385" transform="translate(62,125)"/>
<path d="M0 0 C4.53036927 7.79930241 3.14344394 18.90690555 3.09765625 27.671875 C3.09553383 29.24452118 3.09553383 29.24452118 3.09336853 30.84893799 C3.08783676 34.14932286 3.07529772 37.44963615 3.0625 40.75 C3.05747616 43.00781151 3.05291481 45.2656241 3.04882812 47.5234375 C3.03788982 53.01564882 3.0212215 58.50781929 3 64 C2.67 64 2.34 64 2 64 C1.97494385 63.07251953 1.9498877 62.14503906 1.92407227 61.18945312 C1.82836638 57.71539461 1.7291709 54.2414708 1.62768555 50.76757812 C1.58464137 49.27022126 1.54294799 47.77282487 1.50268555 46.27539062 C1.44423502 44.11055644 1.38076547 41.94591566 1.31640625 39.78125 C1.26141968 37.8331543 1.26141968 37.8331543 1.20532227 35.84570312 C1.06082534 33.13926362 0.84309275 30.56571493 0.48632812 27.890625 C0.0656283 24.5250264 -0.11605294 21.35374066 -0.09765625 17.96875 C-0.09443359 16.91171875 -0.09121094 15.8546875 -0.08789062 14.765625 C-0.07951172 13.68796875 -0.07113281 12.6103125 -0.0625 11.5 C-0.05798828 10.39140625 -0.05347656 9.2828125 -0.04882812 8.140625 C-0.03713158 5.42702601 -0.02074086 2.71354239 0 0 Z " fill="#96EF89" transform="translate(687,176)"/>
<path d="M0 0 C0 0.66 0 1.32 0 2 C0.598125 2.12375 1.19625 2.2475 1.8125 2.375 C4 3 4 3 7 5 C8.32 5 9.64 5 11 5 C11 6.32 11 7.64 11 9 C13.64 9.33 16.28 9.66 19 10 C19 11.32 19 12.64 19 14 C13.60881291 12.06254214 8.82415823 9.13092532 3.8828125 6.27734375 C-4.51594445 1.47579025 -11.55295537 -0.44457722 -21.3359375 1.453125 C-22.91087802 1.90310801 -24.46065327 2.44023755 -26 3 C-26 2.34 -26 1.68 -26 1 C-17.05758661 -2.62880543 -9.15209283 -3.18333664 0 0 Z " fill="#51D953" transform="translate(485,433)"/>
<path d="M0 0 C-0.33 0.66 -0.66 1.32 -1 2 C-1.99 1.67 -2.98 1.34 -4 1 C-4 0.34 -4 -0.32 -4 -1 C-17.57922698 -0.84375366 -27.9268976 0.40990079 -39.625 7.875 C-40.73875 8.57625 -41.8525 9.2775 -43 10 C-43.66 9.67 -44.32 9.34 -45 9 C-43.625 7.5 -43.625 7.5 -42 6 C-41.34 6 -40.68 6 -40 6 C-40 5.34 -40 4.68 -40 4 C-38.68 4 -37.36 4 -36 4 C-36 3.34 -36 2.68 -36 2 C-30.34443785 0.2930899 -24.68886448 -1.40711795 -19 -3 C-18.34 -3.20625 -17.68 -3.4125 -17 -3.625 C-10.16878535 -4.90585275 -5.80396026 -3.3768496 0 0 Z " fill="#8CF07A" transform="translate(244,159)"/>
<path d="M0 0 C2.86545595 2.86545595 2.31629628 4.96814756 2.4140625 8.9765625 C2.43342865 9.66181 2.4527948 10.3470575 2.4727478 11.05307007 C2.53256831 13.24358644 2.57893756 15.4341553 2.625 17.625 C2.66317763 19.10939802 2.70222924 20.59377384 2.7421875 22.078125 C2.83827084 25.71854685 2.92229282 29.35913436 3 33 C3.66 33 4.32 33 5 33 C5 35.31 5 37.62 5 40 C3.515 40.495 3.515 40.495 2 41 C0.3483961 27.27104257 -0.24984036 13.82450015 0 0 Z " fill="#39CF3E" transform="translate(47,527)"/>
<path d="M0 0 C0.33 0 0.66 0 1 0 C1.26391916 14.15418769 0.70733297 27.9449911 -1 42 C-1.66 42 -2.32 42 -3 42 C-4.25488772 36.47849405 -4.25488772 36.47849405 -3.04711914 34.21118164 C-1.62561256 31.20941314 -1.69174954 28.68419135 -1.62109375 25.37109375 C-1.58693359 24.08912109 -1.55277344 22.80714844 -1.51757812 21.48632812 C-1.49024908 20.13673149 -1.46356322 18.78712168 -1.4375 17.4375 C-1.37954285 14.79015653 -1.31403718 12.14322323 -1.24609375 9.49609375 C-1.22216553 8.32232178 -1.1982373 7.1485498 -1.17358398 5.93920898 C-1 3 -1 3 0 0 Z " fill="#37D03B" transform="translate(688,526)"/>
<path d="M0 0 C0 0.33 0 0.66 0 1 C-1.17433594 1.14695313 -2.34867188 1.29390625 -3.55859375 1.4453125 C-16.7470782 3.23208606 -29.52373235 5.96360101 -41 13 C-43.31691454 13.72166191 -45.64848923 14.40059529 -48 15 C-48 14.34 -48 13.68 -48 13 C-41.33586304 9.2354034 -34.57994658 6.76340487 -27.27148438 4.61254883 C-23.86065976 3.82537419 -23.86065976 3.82537419 -21 2 C-13.97594878 0.43783276 -7.18001295 -0.23933376 0 0 Z " fill="#E3FEDD" transform="translate(168,49)"/>
<path d="M0 0 C2.1462026 0.14029419 4.29196218 0.28738164 6.4375 0.4375 C7.63246094 0.51871094 8.82742188 0.59992187 10.05859375 0.68359375 C13 1 13 1 14 2 C15.99603206 2.20888708 17.99742941 2.36775477 20 2.5 C25.88888889 2.88888889 25.88888889 2.88888889 27 4 C28.92667507 4.08748207 30.85651861 4.10697334 32.78515625 4.09765625 C34.53989258 4.09282227 34.53989258 4.09282227 36.33007812 4.08789062 C37.56177734 4.07951172 38.79347656 4.07113281 40.0625 4.0625 C41.29806641 4.05798828 42.53363281 4.05347656 43.80664062 4.04882812 C46.87114117 4.03699608 49.93554721 4.02051173 53 4 C53 4.33 53 4.66 53 5 C35.1688932 8.56038466 17.40263616 5.1050133 0 1 C0 0.67 0 0.34 0 0 Z " fill="#D0FCD3" transform="translate(467,564)"/>
<path d="M0 0 C0.33 0 0.66 0 1 0 C1.43214646 4.41034579 1.85919878 8.82114778 2.28173828 13.23242188 C2.42588018 14.72994981 2.57136199 16.22734945 2.71826172 17.72460938 C2.93037111 19.88899093 3.13749923 22.05380321 3.34375 24.21875 C3.53227539 26.1668457 3.53227539 26.1668457 3.72460938 28.15429688 C4.00930908 32.12999702 4.04650122 36.01639567 4 40 C1.31689279 34.81265939 0.87185752 30.59408748 0.9375 24.8125 C0.94201172 24.06291016 0.94652344 23.31332031 0.95117188 22.54101562 C0.96293646 20.69397617 0.98087135 18.84697787 1 17 C0.34 17 -0.32 17 -1 17 C-1.02699725 14.72923158 -1.04639453 12.45837179 -1.0625 10.1875 C-1.07990234 8.29064453 -1.07990234 8.29064453 -1.09765625 6.35546875 C-1 3 -1 3 0 0 Z " fill="#CBFACE" transform="translate(46,536)"/>
<path d="M0 0 C2 2 2 2 2.23046875 4.0234375 C2.21628906 4.79945313 2.20210937 5.57546875 2.1875 6.375 C2.18105469 7.14585937 2.17460938 7.91671875 2.16796875 8.7109375 C2 11 2 11 1.50268555 12.89672852 C0.6671668 16.39259738 0.75164863 19.98310693 0.625 23.5625 C0.31437497 30.71047915 -0.62035333 37.20528562 -3 44 C-4.16296548 40.46526717 -3.90176783 37.57852786 -3.4765625 33.90625 C-3.3425 32.71 -3.2084375 31.51375 -3.0703125 30.28125 C-2.92335938 29.0334375 -2.77640625 27.785625 -2.625 26.5 C-2.34495994 24.05224244 -2.06630192 21.60432635 -1.7890625 19.15625 C-1.6540332 17.96644531 -1.51900391 16.77664063 -1.37988281 15.55078125 C-0.82609228 10.37447699 -0.39659269 5.19045176 0 0 Z " fill="#C8FACB" transform="translate(689,536)"/>
<path d="M0 0 C1.32 0 2.64 0 4 0 C4.12375 0.721875 4.2475 1.44375 4.375 2.1875 C4.9904931 4.95721894 5.88444374 7.3970354 7 10 C7.99 9.67 8.98 9.34 10 9 C11.49169565 12.62268944 12.7855276 16.27561797 14 20 C14.33 20.99 14.66 21.98 15 23 C15.66 23 16.32 23 17 23 C17.33 24.65 17.66 26.3 18 28 C13.35223038 24.0564379 10.75405527 19.36657843 7.78125 14.0859375 C5.71526077 10.50670178 3.438381 7.12364498 1.06640625 3.7421875 C0 2 0 2 0 0 Z " fill="#8CF07D" transform="translate(244,161)"/>
<path d="M0 0 C0 0.66 0 1.32 0 2 C-2.99737087 3.44302773 -5.99835736 4.87838185 -9 6.3125 C-9.83917969 6.71662109 -10.67835938 7.12074219 -11.54296875 7.53710938 C-25.09927591 14 -25.09927591 14 -31 14 C-30.67 13.01 -30.34 12.02 -30 11 C-29.113125 10.87625 -28.22625 10.7525 -27.3125 10.625 C-24.05698511 10.12328373 -24.05698511 10.12328373 -21.375 8.9375 C-19 8 -19 8 -15 8 C-15 7.34 -15 6.68 -15 6 C-14.39671875 5.73445312 -13.7934375 5.46890625 -13.171875 5.1953125 C-12.37265625 4.84210937 -11.5734375 4.48890625 -10.75 4.125 C-9.96109375 3.77695312 -9.1721875 3.42890625 -8.359375 3.0703125 C-6.82990954 2.37648214 -5.3172252 1.64387645 -3.828125 0.8671875 C-2 0 -2 0 0 0 Z " fill="#29C934" transform="translate(622,667)"/>
<path d="M0 0 C6.72548124 6.72548124 5.65606505 22.86793397 6 32 C5.67 32 5.34 32 5 32 C4.80664062 30.92878906 4.61328125 29.85757813 4.4140625 28.75390625 C4.15149745 27.35668511 3.88845175 25.95955422 3.625 24.5625 C3.49867188 23.85544922 3.37234375 23.14839844 3.2421875 22.41992188 C2.89377757 20.59948 2.452957 18.79728352 2 17 C1.34 16.67 0.68 16.34 0 16 C0.66 13.36 1.32 10.72 2 8 C1.34 8 0.68 8 0 8 C0 5.36 0 2.72 0 0 Z " fill="#8BF37B" transform="translate(681,144)"/>
<path d="M0 0 C0.99 0 1.98 0 3 0 C3 0.66 3 1.32 3 2 C4.32 2 5.64 2 7 2 C7 2.66 7 3.32 7 4 C9.97 4.495 9.97 4.495 13 5 C13 4.01 13 3.02 13 2 C13.66 2 14.32 2 15 2 C15.20625 2.61875 15.4125 3.2375 15.625 3.875 C17.54775888 6.84653645 19.66594527 7.13024659 23 8 C23 8.66 23 9.32 23 10 C18.18719025 10.45120091 14.34979971 8.82336187 10 7 C9.18144531 6.67515625 8.36289063 6.3503125 7.51953125 6.015625 C6.70871094 5.68046875 5.89789063 5.3453125 5.0625 5 C4.31097656 4.690625 3.55945313 4.38125 2.78515625 4.0625 C1 3 1 3 0 0 Z " fill="#1FCC2A" transform="translate(122,671)"/>
<path d="M0 0 C0.66 0 1.32 0 2 0 C0.82269605 2.45271656 -0.45133916 4.7371873 -1.875 7.0625 C-5.4156866 13.2023423 -7.75558645 20.03631204 -9 27 C-11 24 -11 24 -10.78125 21.734375 C-9.8554179 18.49396264 -8.72221567 15.39081003 -7.5 12.25 C-7.0565625 11.10015625 -6.613125 9.9503125 -6.15625 8.765625 C-5 6 -5 6 -4 5 C-4.66 4.34 -5.32 3.68 -6 3 C-5.195625 2.87625 -4.39125 2.7525 -3.5625 2.625 C-2.716875 2.41875 -1.87125 2.2125 -1 2 C-0.67 1.34 -0.34 0.68 0 0 Z " fill="#85EE75" transform="translate(175,189)"/>
<path d="M0 0 C6.21686803 0.49366785 10.99837893 2.5807045 16.5625 5.3125 C17.7990332 5.8993457 17.7990332 5.8993457 19.06054688 6.49804688 C23.63240194 8.7017468 27.85804493 11.06639487 32 14 C31.01 14.33 30.02 14.66 29 15 C26.66015625 13.8203125 26.66015625 13.8203125 24.0625 12.125 C21.03891351 10.16400122 18.56773101 8.64566826 15 8 C15 7.34 15 6.68 15 6 C14.01 5.9175 13.02 5.835 12 5.75 C7.52543052 5.13691993 3.90429315 3.18031955 0 1 C0 0.67 0 0.34 0 0 Z " fill="#9FF58A" transform="translate(592,55)"/>
<path d="M0 0 C0.66 0.33 1.32 0.66 2 1 C1.10861328 1.67482422 1.10861328 1.67482422 0.19921875 2.36328125 C-6.75483017 7.75996929 -12.89578823 13.68689886 -19 20 C-19.33 18.68 -19.66 17.36 -20 16 C-18.68 15.67 -17.36 15.34 -16 15 C-16 14.01 -16 13.02 -16 12 C-12.66666667 9 -12.66666667 9 -10 9 C-9.7525 8.39800781 -9.505 7.79601562 -9.25 7.17578125 C-7.79663839 4.64602369 -6.47554441 3.69375956 -4 2.1875 C-3.29875 1.74792969 -2.5975 1.30835938 -1.875 0.85546875 C-1.25625 0.57316406 -0.6375 0.29085937 0 0 Z " fill="#89F17A" transform="translate(197,169)"/>
<path d="M0 0 C1.07174763 3.65188082 0.76411467 6.26432828 0 10 C-0.66 10 -1.32 10 -2 10 C-2.268125 10.56203125 -2.53625 11.1240625 -2.8125 11.703125 C-4.0803979 14.15550646 -5.48972342 16.43927683 -7 18.75 C-7.515625 19.54921875 -8.03125 20.3484375 -8.5625 21.171875 C-9.036875 21.77515625 -9.51125 22.3784375 -10 23 C-10.66 23 -11.32 23 -12 23 C-10.2010497 17.92365174 -7.50973545 13.36286389 -4.875 8.6875 C-4.40707031 7.85154297 -3.93914062 7.01558594 -3.45703125 6.15429688 C-2.3073741 4.10133767 -1.15496198 2.04997798 0 0 Z " fill="#6EE864" transform="translate(294,283)"/>
<path d="M0 0 C0.33 0 0.66 0 1 0 C0.60821632 7.83567364 -1.83501201 13.87877703 -5 21 C-5.33 21.99 -5.66 22.98 -6 24 C-6.66 24 -7.32 24 -8 24 C-8 24.66 -8 25.32 -8 26 C-8.66 26 -9.32 26 -10 26 C-8.19226299 20.29867558 -5.8375599 14.90963656 -3.4375 9.4375 C-2.13543933 6.32387666 -1.01954943 3.21550206 0 0 Z " fill="#D4FBD5" transform="translate(681,592)"/>
<path d="M0 0 C0.65742187 0.29132812 1.31484375 0.58265625 1.9921875 0.8828125 C11.14838739 4.82816693 20.51981737 7.93474095 30 11 C21.2576006 13.47378548 10.8437599 7.66768403 3 4 C2.01 3.34 1.02 2.68 0 2 C0 1.34 0 0.68 0 0 Z " fill="#D3FBD8" transform="translate(120,672)"/>
<path d="M0 0 C3.71052293 1.28455056 6.0831883 2.70658691 8.84765625 5.484375 C9.53537109 6.17273438 10.22308594 6.86109375 10.93164062 7.5703125 C11.63482422 8.28960937 12.33800781 9.00890625 13.0625 9.75 C13.76955078 10.45382813 14.47660156 11.15765625 15.20507812 11.8828125 C18.97930206 15.69601903 22.21989753 19.40741514 25 24 C23.0625 23.1875 23.0625 23.1875 21 22 C20.67 21.01 20.34 20.02 20 19 C19.34 19 18.68 19 18 19 C16.66015625 17.56640625 16.66015625 17.56640625 15.0625 15.5625 C11.23917672 11.01825347 6.84760677 7.50407306 2.16015625 3.8828125 C1.44730469 3.26148437 0.73445312 2.64015625 0 2 C0 1.34 0 0.68 0 0 Z " fill="#A1F590" transform="translate(635,78)"/>
<path d="M0 0 C1.04449911 3.13349732 0.93423645 3.98968256 0 7 C3.10540926 8.21081851 3.10540926 8.21081851 7 8 C7 9.32 7 10.64 7 12 C7.66 12.66 8.32 13.32 9 14 C5.00987629 13.44010697 2.4744948 12.24330232 -0.8125 9.9375 C-1.60269531 9.38964844 -2.39289063 8.84179688 -3.20703125 8.27734375 C-3.79871094 7.85582031 -4.39039062 7.43429687 -5 7 C-3.64062915 4.1394109 -2.35479531 2.14072301 0 0 Z " fill="#1DCE29" transform="translate(111,656)"/>
<path d="M0 0 C4.05936656 1.82466477 7.61309314 4.33951412 11.25 6.875 C11.8996875 7.30941406 12.549375 7.74382812 13.21875 8.19140625 C15.078125 9.4921875 15.078125 9.4921875 18 12 C18 13.32 18 14.64 18 16 C17.67 15.34 17.34 14.68 17 14 C16.01 14 15.02 14 14 14 C13.67 13.01 13.34 12.02 13 11 C9.77208445 8.8480563 8.71599191 8.79913557 5 9 C5 8.01 5 7.02 5 6 C4.01 5.34 3.02 4.68 2 4 C2 3.34 2 2.68 2 2 C1.34 2 0.68 2 0 2 C0 1.34 0 0.68 0 0 Z " fill="#42D447" transform="translate(355,503)"/>
<path d="M0 0 C0.99 0.495 0.99 0.495 2 1 C2.23294072 2.96335746 2.46170117 4.92738879 2.66015625 6.89453125 C3.14931 9.92503551 4.5887177 12.28599558 6 15 C7.97353645 20.59478966 9.35924786 26.10508031 10 32 C7.9177444 29.9177444 7.46062537 28.87516135 6.5625 26.1484375 C6.30726563 25.37886719 6.05203125 24.60929687 5.7890625 23.81640625 C5.52867187 23.01074219 5.26828125 22.20507812 5 21.375 C4.60941406 20.20130859 4.60941406 20.20130859 4.2109375 19.00390625 C0 6.1796875 0 6.1796875 0 0 Z " fill="#D4FCCF" transform="translate(167,252)"/>
<path d="M0 0 C4.21654356 1.48635116 7.62478605 3.61249159 11.3125 6.125 C12.38113281 6.84945312 13.44976562 7.57390625 14.55078125 8.3203125 C15.76314453 9.15175781 15.76314453 9.15175781 17 10 C15.02 10.99 15.02 10.99 13 12 C12.67 10.68 12.34 9.36 12 8 C10.35 8.66 8.7 9.32 7 10 C6.66226562 9.50628906 6.32453125 9.01257813 5.9765625 8.50390625 C5.53054688 7.86324219 5.08453125 7.22257813 4.625 6.5625 C4.18414062 5.92441406 3.74328125 5.28632812 3.2890625 4.62890625 C2.07839147 2.86259072 2.07839147 2.86259072 0 2 C0 1.34 0 0.68 0 0 Z " fill="#3ED443" transform="translate(375,518)"/>
<path d="M0 0 C0.99 0.33 1.98 0.66 3 1 C3 1.66 3 2.32 3 3 C4.32 3.33 5.64 3.66 7 4 C7 4.66 7 5.32 7 6 C7.99 6.33 8.98 6.66 10 7 C10 7.66 10 8.32 10 9 C11.32 9 12.64 9 14 9 C14 9.99 14 10.98 14 12 C14.99 12 15.98 12 17 12 C16.67 12.99 16.34 13.98 16 15 C13.70667025 13.37730453 11.41529864 11.75196361 9.125 10.125 C8.47402344 9.66480469 7.82304687 9.20460938 7.15234375 8.73046875 C6.52714844 8.28574219 5.90195312 7.84101563 5.2578125 7.3828125 C4.6817627 6.97434082 4.10571289 6.56586914 3.51220703 6.14501953 C2 5 2 5 0 3 C0 2.01 0 1.02 0 0 Z " fill="#4DDD4E" transform="translate(382,441)"/>
<path d="M0 0 C3.21676586 1.60838293 3.64670854 4.78593279 5 8 C5.66 8.66 6.32 9.32 7 10 C7.33 10.33 7.66 10.66 8 11 C8.66 10.34 9.32 9.68 10 9 C10.66 11.97 11.32 14.94 12 18 C8.36182364 17.03861661 7.15167127 16.22031939 4.98046875 13.06640625 C4.09294922 11.33197266 4.09294922 11.33197266 3.1875 9.5625 C2.58292969 8.40878906 1.97835937 7.25507812 1.35546875 6.06640625 C0 3 0 3 0 0 Z " fill="#31CB3B" transform="translate(61,607)"/>
<path d="M0 0 C1.32 0.66 2.64 1.32 4 2 C1.40251918 3.5333805 -1.20187896 5.05179668 -3.8125 6.5625 C-4.55048828 7.00013672 -5.28847656 7.43777344 -6.04882812 7.88867188 C-6.76103516 8.29794922 -7.47324219 8.70722656 -8.20703125 9.12890625 C-9.18893433 9.70233765 -9.18893433 9.70233765 -10.19067383 10.28735352 C-12 11 -12 11 -15 10 C-14.34 9.34 -13.68 8.68 -13 8 C-12.484375 7.319375 -11.96875 6.63875 -11.4375 5.9375 C-7.90502617 3.12963619 -4.40387622 3.18819984 0 3 C0 2.01 0 1.02 0 0 Z " fill="#4BD94D" transform="translate(436,444)"/>
<path d="M0 0 C1.32 0 2.64 0 4 0 C4.33 0.99 4.66 1.98 5 3 C4.34 3 3.68 3 3 3 C2.67 3.99 2.34 4.98 2 6 C0.35666496 7.03789581 -1.31243867 8.03567924 -3 9 C-4.75149165 10.58245275 -4.75149165 10.58245275 -6 12 C-6.66 11.67 -7.32 11.34 -8 11 C-6.76640153 9.15559063 -5.51255281 7.32471135 -4.25 5.5 C-3.55390625 4.4790625 -2.8578125 3.458125 -2.140625 2.40625 C-1.43421875 1.6121875 -0.7278125 0.818125 0 0 Z " fill="#34D338" transform="translate(553,546)"/>
<path d="M0 0 C0.66 0.33 1.32 0.66 2 1 C2 2.32 2 3.64 2 5 C1.01 5.495 1.01 5.495 0 6 C-0.33 6.99 -0.66 7.98 -1 9 C-0.34 9 0.32 9 1 9 C1 9.66 1 10.32 1 11 C0.34 11 -0.32 11 -1 11 C-1 11.66 -1 12.32 -1 13 C-2.65 13.66 -4.3 14.32 -6 15 C-4.7856166 9.23167884 -3.12383293 4.99813269 0 0 Z " fill="#2FD836" transform="translate(573,515)"/>
<path d="M0 0 C0.33 0 0.66 0 1 0 C1.56350134 7.88901879 -0.68281304 12.52421956 -5 19 C-5.66 19 -6.32 19 -7 19 C-4.94235079 12.54646385 -2.57616518 6.2638737 0 0 Z " fill="#79EB6F" transform="translate(302,264)"/>
<path d="M0 0 C7.92 3.96 7.92 3.96 16 8 C16 8.99 16 9.98 16 11 C13.36 10.67 10.72 10.34 8 10 C7.67 8.68 7.34 7.36 7 6 C5.68 5.67 4.36 5.34 3 5 C3 4.34 3 3.68 3 3 C1.68 2.67 0.36 2.34 -1 2 C-0.67 1.34 -0.34 0.68 0 0 Z " fill="#35D43C" transform="translate(408,538)"/>
<path d="M0 0 C11.15848978 0.29676835 21.26965265 1.93214803 32 5 C32 5.33 32 5.66 32 6 C26.88208358 6.10662326 22.07071901 5.71167986 17 5 C17 4.34 17 3.68 17 3 C16.03900391 3.03480469 16.03900391 3.03480469 15.05859375 3.0703125 C9.59012904 3.18440863 5.16901723 2.79791904 0 1 C0 0.67 0 0.34 0 0 Z " fill="#9DF78A" transform="translate(560,49)"/>
<path d="M0 0 C1.09025566 3.27076698 0.90387789 4.40453084 0.1875 7.6875 C-0.00199219 8.56535156 -0.19148438 9.44320312 -0.38671875 10.34765625 C-1.21088479 13.91204315 -2.08185739 17.4585928 -3 21 C-3.33 21 -3.66 21 -4 21 C-3.85879984 18.41633755 -3.71221667 15.83317115 -3.5625 13.25 C-3.52318359 12.52039063 -3.48386719 11.79078125 -3.44335938 11.0390625 C-3.03377109 4.10756844 -3.03377109 4.10756844 -2 1 C-1.34 0.67 -0.68 0.34 0 0 Z " fill="#8BF179" transform="translate(53,155)"/>
<path d="M0 0 C-0.95712891 0.19916016 -0.95712891 0.19916016 -1.93359375 0.40234375 C-3.17302734 0.66724609 -3.17302734 0.66724609 -4.4375 0.9375 C-5.26121094 1.11152344 -6.08492187 1.28554688 -6.93359375 1.46484375 C-8.97661204 1.80752994 -8.97661204 1.80752994 -10 3 C-11.34267413 3.08631874 -12.68974322 3.10706473 -14.03515625 3.09765625 C-14.84404297 3.09443359 -15.65292969 3.09121094 -16.48632812 3.08789062 C-17.33646484 3.07951172 -18.18660156 3.07113281 -19.0625 3.0625 C-19.91650391 3.05798828 -20.77050781 3.05347656 -21.65039062 3.04882812 C-23.76695663 3.03700373 -25.88348685 3.01906769 -28 3 C-28 2.67 -28 2.34 -28 2 C-24.08488185 1.46705432 -20.16774466 0.95075145 -16.25 0.4375 C-15.13882813 0.28603516 -14.02765625 0.13457031 -12.8828125 -0.02148438 C-11.81289063 -0.16005859 -10.74296875 -0.29863281 -9.640625 -0.44140625 C-8.65610352 -0.57232666 -7.67158203 -0.70324707 -6.65722656 -0.83813477 C-4.14200979 -0.99134946 -2.37853466 -0.77228356 0 0 Z " fill="#C6F9CA" transform="translate(580,686)"/>
<path d="M0 0 C1.75 0.125 1.75 0.125 4 1 C4.66 2.010625 5.32 3.02125 6 4.0625 C6.66 5.031875 7.32 6.00125 8 7 C9.32 7 10.64 7 12 7 C13 10 13 10 13 13 C12.34 13 11.68 13 11 13 C11 12.01 11 11.02 11 10 C10.319375 9.95875 9.63875 9.9175 8.9375 9.875 C4.74484213 8.62612319 2.1407561 5.95973269 -1 3 C-0.67 2.01 -0.34 1.02 0 0 Z " fill="#40DA43" transform="translate(563,482)"/>
<path d="M0 0 C2.91517292 1.07401108 4.77810176 1.77810176 7 4 C7.66 4 8.32 4 9 4 C9 4.66 9 5.32 9 6 C9.99 6.33 10.98 6.66 12 7 C12.99 7.66 13.98 8.32 15 9 C11.74607513 10.05532699 10.44479308 10.22077321 7.32421875 8.671875 C6.01904297 7.72054688 6.01904297 7.72054688 4.6875 6.75 C3.80449219 6.12609375 2.92148437 5.5021875 2.01171875 4.859375 C1.34785156 4.24578125 0.68398438 3.6321875 0 3 C0 2.01 0 1.02 0 0 Z " fill="#43DA44" transform="translate(548,472)"/>
<path d="M0 0 C0.66 0.33 1.32 0.66 2 1 C0.0421736 3.12546902 -1.91623817 5.25039334 -3.875 7.375 C-4.43058594 7.97828125 -4.98617187 8.5815625 -5.55859375 9.203125 C-6.09355469 9.78320312 -6.62851563 10.36328125 -7.1796875 10.9609375 C-7.67194824 11.49509277 -8.16420898 12.02924805 -8.67138672 12.57958984 C-9.75815762 13.74144818 -10.87505872 14.87505872 -12 16 C-12.99 15.67 -13.98 15.34 -15 15 C-10.05 10.05 -5.1 5.1 0 0 Z " fill="#E8FEE4" transform="translate(192,174)"/>
<path d="M0 0 C5.03985731 0.44469329 7.37634988 2.71343362 11 6 C10.34 6.66 9.68 7.32 9 8 C9 7.34 9 6.68 9 6 C6.10765685 5.17361624 4.11257569 5 1 5 C0.67 3.35 0.34 1.7 0 0 Z " fill="#36D83B" transform="translate(344,496)"/>
<path d="M0 0 C0.33 0 0.66 0 1 0 C1.33 1.98 1.66 3.96 2 6 C-2.21610247 8.40920141 -5.13241177 9.44250802 -10 9 C-10.66 8.67 -11.32 8.34 -12 8 C-12 7.34 -12 6.68 -12 6 C-10.14375 6.0309375 -10.14375 6.0309375 -8.25 6.0625 C-5.3359175 6.06766681 -2.79046673 5.93015558 0 5 C-0.2784375 4.0409375 -0.2784375 4.0409375 -0.5625 3.0625 C-0.706875 2.381875 -0.85125 1.70125 -1 1 C-0.67 0.67 -0.34 0.34 0 0 Z " fill="#46DA45" transform="translate(418,451)"/>
<path d="M0 0 C8.58 1.32 17.16 2.64 26 4 C26 4.33 26 4.66 26 5 C23.85423363 5.02685938 21.70837355 5.04633088 19.5625 5.0625 C18.36753906 5.07410156 17.17257813 5.08570313 15.94140625 5.09765625 C13 5 13 5 12 4 C9.16505808 3.46620556 6.32007381 3.03490823 3.46875 2.59765625 C2.6540625 2.40042969 1.839375 2.20320312 1 2 C0.67 1.34 0.34 0.68 0 0 Z " fill="#CFFCD1" transform="translate(154,684)"/>
<path d="M0 0 C0.33 0 0.66 0 1 0 C1.39325819 6.97669157 0.63096039 12.51656189 -2 19 C-2.33 19 -2.66 19 -3 19 C-3.45510807 12.32508169 -1.7672426 6.40625443 0 0 Z " fill="#35D03C" transform="translate(684,571)"/>
<path d="M0 0 C4.61262202 0.52931728 7.84399037 2.12854894 11.8125 4.4375 C11.4825 5.0975 11.1525 5.7575 10.8125 6.4375 C9.8225 6.1075 8.8325 5.7775 7.8125 5.4375 C7.8125 4.7775 7.8125 4.1175 7.8125 3.4375 C3.1925 3.4375 -1.4275 3.4375 -6.1875 3.4375 C-3.1875 0.4375 -3.1875 0.4375 0 0 Z " fill="#95F483" transform="translate(232.1875,154.5625)"/>
<path d="M0 0 C6.18160604 0.53753096 11.326858 2.54582388 17 5 C17 5.66 17 6.32 17 7 C17.99 6.67 18.98 6.34 20 6 C20 6.99 20 7.98 20 9 C13.04217652 6.93145788 6.0476562 4.0317708 0 0 Z " fill="#E6FEE0" transform="translate(596,55)"/>
<path d="M0 0 C2.31 0.33 4.62 0.66 7 1 C6.67 2.65 6.34 4.3 6 6 C5.01 6.33 4.02 6.66 3 7 C2.67 5.68 2.34 4.36 2 3 C1.01 3.33 0.02 3.66 -1 4 C-0.67 2.68 -0.34 1.36 0 0 Z " fill="#21DA29" transform="translate(401,537)"/>
<path d="M0 0 C5.63098876 3.00064027 10.88084541 6.18786361 16 10 C15.01 10.495 15.01 10.495 14 11 C12.32936253 10.00664799 10.66324401 9.00568242 9 8 C6.30745009 7.29329272 6.30745009 7.29329272 4 7 C4 6.01 4 5.02 4 4 C2.68 3.34 1.36 2.68 0 2 C0 1.34 0 0.68 0 0 Z " fill="#DDFDDE" transform="translate(536,467)"/>
<path d="M0 0 C1.134375 0.020625 2.26875 0.04125 3.4375 0.0625 C-1.81853094 4.53985969 -6.96927012 4.17424966 -13.5625 4.0625 C-10.80322656 1.30322656 -8.35095948 1.54466757 -4.5625 1.0625 C-3.5625 0.0625 -3.5625 0.0625 0 0 Z " fill="#2BCB38" transform="translate(586.5625,680.9375)"/>
<path d="M0 0 C0.99 0 1.98 0 3 0 C3 0.66 3 1.32 3 2 C3.99 2.33 4.98 2.66 6 3 C6.33 4.65 6.66 6.3 7 8 C7.33 8 7.66 8 8 8 C8 9.98 8 11.96 8 14 C2 6.28571429 2 6.28571429 2 1 C1.34 0.67 0.68 0.34 0 0 Z " fill="#73EC67" transform="translate(295,240)"/>
<path d="M0 0 C3 0 3 0 5.5625 2.25 C7.57275078 4.51797524 8.87225206 6.23189141 10 9 C6.01457486 7.63356852 3.07460137 5.89890986 0 3 C0 2.01 0 1.02 0 0 Z " fill="#29D035" transform="translate(95,652)"/>
<path d="M0 0 C0.99 0.33 1.98 0.66 3 1 C3.12375 1.9075 3.2475 2.815 3.375 3.75 C3.92802286 6.62571885 4.68078293 8.44951366 6 11 C6 11.99 6 12.98 6 14 C5.34 14 4.68 14 4 14 C3.32471777 12.42032193 2.66010306 10.83608097 2 9.25 C1.62875 8.36828125 1.2575 7.4865625 0.875 6.578125 C0 4 0 4 0 0 Z " fill="#28CE31" transform="translate(55,591)"/>
<path d="M0 0 C0.99 0 1.98 0 3 0 C3.103125 0.763125 3.20625 1.52625 3.3125 2.3125 C4.05594134 5.21867978 4.65886963 6.19913049 7 8 C7.99 8.33 8.98 8.66 10 9 C10 9.33 10 9.66 10 10 C7.875 10.375 7.875 10.375 5 10 C2.6042239 8.31856081 0.52979398 6.50748186 -1 4 C-0.6640625 1.796875 -0.6640625 1.796875 0 0 Z " fill="#25CE30" transform="translate(85,640)"/>
<path d="M0 0 C0.66 0 1.32 0 2 0 C1.69024532 1.77131561 1.37709575 3.54203778 1.0625 5.3125 C0.88847656 6.29863281 0.71445312 7.28476562 0.53515625 8.30078125 C0 11 0 11 -1 14 C-1.99 13.67 -2.98 13.34 -4 13 C-3.690625 12.443125 -3.38125 11.88625 -3.0625 11.3125 C-1.93362221 8.8555307 -1.46487916 6.65645236 -1 4 C-0.67516582 2.66457061 -0.3449145 1.33038449 0 0 Z " fill="#26D030" transform="translate(678,592)"/>
<path d="M0 0 C5.77807024 -0.2358396 10.51324804 0.13216954 16 2 C16 2.33 16 2.66 16 3 C10.72 2.67 5.44 2.34 0 2 C0 1.34 0 0.68 0 0 Z " fill="#E4FEDB" transform="translate(560,47)"/>
<path d="M0 0 C0.99 0 1.98 0 3 0 C3 0.66 3 1.32 3 2 C4.32 2 5.64 2 7 2 C7 2.66 7 3.32 7 4 C8.65 4.33 10.3 4.66 12 5 C12 5.66 12 6.32 12 7 C10.55903414 6.57405412 9.12231288 6.13373367 7.6875 5.6875 C6.88699219 5.44386719 6.08648437 5.20023438 5.26171875 4.94921875 C2.88859576 3.95324485 1.63095609 2.96875929 0 1 C0 0.67 0 0.34 0 0 Z " fill="#37CE42" transform="translate(122,671)"/>
<path d="M0 0 C3.35111834 2.23407889 4.81553956 3.26215824 5.8125 7.25 C5.874375 8.1575 5.93625 9.065 6 10 C6.99 10.33 7.98 10.66 9 11 C8.34 11.66 7.68 12.32 7 13 C5.82479354 11.40207898 4.66008753 9.79643092 3.5 8.1875 C2.8503125 7.29417969 2.200625 6.40085938 1.53125 5.48046875 C0 3 0 3 0 0 Z " fill="#7BEC6C" transform="translate(281,217)"/>
<path d="M0 0 C4.56454251 0.54339792 7.9728176 1.79463821 12 4 C11.34 5.32 10.68 6.64 10 8 C8 7 8 7 7 4 C3.49705129 2.28432339 3.49705129 2.28432339 0 1 C0 0.67 0 0.34 0 0 Z " fill="#2ED035" transform="translate(442,556)"/>
<path d="M0 0 C4.75 0.75 4.75 0.75 7 3 C7 3.99 7 4.98 7 6 C5.35 5.67 3.7 5.34 2 5 C2 4.34 2 3.68 2 3 C1.34 3 0.68 3 0 3 C0 2.01 0 1.02 0 0 Z " fill="#3FDC41" transform="translate(304,458)"/>
<path d="M0 0 C0.66 0 1.32 0 2 0 C2.33 1.32 2.66 2.64 3 4 C3.66 4 4.32 4 5 4 C8.22265625 9.17578125 8.22265625 9.17578125 9 11 C8.67 11.99 8.34 12.98 8 14 C6.66101601 12.04532248 5.32870953 10.0866421 4 8.125 C3.2575 7.03445312 2.515 5.94390625 1.75 4.8203125 C0 2 0 2 0 0 Z " fill="#85EE76" transform="translate(262,189)"/>
<path d="M0 0 C3.43752007 1.5277867 6.18953688 3.50181056 9 6 C9 6.66 9 7.32 9 8 C7.68 8.33 6.36 8.66 5 9 C5 8.01 5 7.02 5 6 C4.01 5.34 3.02 4.68 2 4 C2 3.34 2 2.68 2 2 C1.34 2 0.68 2 0 2 C0 1.34 0 0.68 0 0 Z " fill="#37D53A" transform="translate(355,503)"/>
<path d="M0 0 C0.33 0.66 0.66 1.32 1 2 C1.66 2 2.32 2 3 2 C3 4.31 3 6.62 3 9 C2.01 9.33 1.02 9.66 0 10 C0 6.7 0 3.4 0 0 Z " fill="#2BD232" transform="translate(49,558)"/>
<path d="M0 0 C2.31 0 4.62 0 7 0 C7 0.66 7 1.32 7 2 C7.61875 2.12375 8.2375 2.2475 8.875 2.375 C11 3 11 3 13 5 C12.01 5.495 12.01 5.495 11 6 C8.3984375 5.00390625 8.3984375 5.00390625 5.375 3.5625 C3.87066406 2.85287109 3.87066406 2.85287109 2.3359375 2.12890625 C1.56507813 1.75636719 0.79421875 1.38382812 0 1 C0 0.67 0 0.34 0 0 Z " fill="#5DDD5B" transform="translate(478,433)"/>
<path d="M0 0 C2.475 0.495 2.475 0.495 5 1 C5.33 2.65 5.66 4.3 6 6 C6.66 6 7.32 6 8 6 C7.67 6.99 7.34 7.98 7 9 C4.03595495 6.19195732 1.55500981 3.81684226 0 0 Z " fill="#5CE458" transform="translate(287,347)"/>
<path d="M0 0 C0.33 0 0.66 0 1 0 C1.36279456 1.28926992 1.71496698 2.58153272 2.0625 3.875 C2.25972656 4.59429688 2.45695312 5.31359375 2.66015625 6.0546875 C3 8 3 8 2 10 C2.66 10 3.32 10 4 10 C4 10.66 4 11.32 4 12 C2.68 11.67 1.36 11.34 0 11 C0 7.37 0 3.74 0 0 Z " fill="#2FD237" transform="translate(51,570)"/>
<path d="M0 0 C2.64 0.66 5.28 1.32 8 2 C8 2.99 8 3.98 8 5 C8.99 5 9.98 5 11 5 C10.67 5.99 10.34 6.98 10 8 C8.33055479 6.85821872 6.6645052 5.71147095 5 4.5625 C4.071875 3.92441406 3.14375 3.28632813 2.1875 2.62890625 C1.465625 2.09136719 0.74375 1.55382812 0 1 C0 0.67 0 0.34 0 0 Z " fill="#59DA59" transform="translate(388,448)"/>
<path d="M0 0 C0.99 0 1.98 0 3 0 C1.49776416 4.20626034 -1.28550034 5.73900021 -5 8 C-5 7.01 -5 6.02 -5 5 C-4.34 5 -3.68 5 -3 5 C-2.67 4.01 -2.34 3.02 -2 2 C-1.34 2 -0.68 2 0 2 C0 1.34 0 0.68 0 0 Z " fill="#25CD33" transform="translate(636,654)"/>
<path d="M0 0 C4.24822374 0.47202486 6.19989709 2.96655518 9 6 C8.67 6.66 8.34 7.32 8 8 C7.38125 7.2884375 7.38125 7.2884375 6.75 6.5625 C4.817815 4.83733482 3.51807725 4.43415125 1 4 C0.67 2.68 0.34 1.36 0 0 Z " fill="#38D43D" transform="translate(329,482)"/>
<path d="M0 0 C3.80635497 3.20760251 7.54563567 6.40746109 11 10 C8.0280615 8.87548273 5.66559313 7.77706209 3 6 C3 5.34 3 4.68 3 4 C2.34 4 1.68 4 1 4 C0.67 2.68 0.34 1.36 0 0 Z " fill="#E3FDE1" transform="translate(360,424)"/>
<path d="M0 0 C4.29 0 8.58 0 13 0 C10.36673543 2.63326457 8.67446899 2.71180635 5 3 C2.125 2.0625 2.125 2.0625 0 1 C0 0.67 0 0.34 0 0 Z " fill="#1DD326" transform="translate(499,571)"/>
<path d="M0 0 C3.95820859 0.56545837 6.6659053 1.80902348 10 4 C9.67 4.66 9.34 5.32 9 6 C3.25 4.125 3.25 4.125 1 3 C0.67 2.01 0.34 1.02 0 0 Z " fill="#2ED037" transform="translate(431,551)"/>
<path d="M0 0 C2.4375 0.6875 2.4375 0.6875 5 2 C5.8125 4.625 5.8125 4.625 6 7 C6.99 7 7.98 7 9 7 C8.67 7.99 8.34 8.98 8 10 C6.66666667 8.66666667 5.33333333 7.33333333 4 6 C3.2575 5.29875 2.515 4.5975 1.75 3.875 C0 2 0 2 0 0 Z " fill="#2CD733" transform="translate(375,518)"/>
<path d="M0 0 C0.66 0.33 1.32 0.66 2 1 C1.75 2.875 1.75 2.875 1 5 C-0.875 6.3125 -0.875 6.3125 -3 7 C-3.99 6.67 -4.98 6.34 -6 6 C-4 4 -2 2 0 0 Z " fill="#40DC3F" transform="translate(427,448)"/>
<path d="M0 0 C3.63 1.98 7.26 3.96 11 6 C7 7 7 7 5.078125 6.07421875 C4.47484375 5.61660156 3.8715625 5.15898438 3.25 4.6875 C2.63640625 4.23761719 2.0228125 3.78773438 1.390625 3.32421875 C0.93171875 2.88722656 0.4728125 2.45023438 0 2 C0 1.34 0 0.68 0 0 Z " fill="#D0FCD1" transform="translate(107,664)"/>
<path d="M0 0 C2.62187494 1.04874998 3.79371361 1.64931313 5.25 4.125 C5.4975 4.74375 5.745 5.3625 6 6 C5.34 6.66 4.68 7.32 4 8 C0 3.375 0 3.375 0 0 Z " fill="#23D130" transform="translate(76,631)"/>
<path d="M0 0 C0.33 1.32 0.66 2.64 1 4 C-0.4375 6.25 -0.4375 6.25 -2 8 C-2.99 7.67 -3.98 7.34 -5 7 C-3.35 4.69 -1.7 2.38 0 0 Z " fill="#CDF9D0" transform="translate(668,622)"/>
<path d="M0 0 C1.64826111 2.96687001 2.44271087 5.65626525 3 9 C1.68 8.67 0.36 8.34 -1 8 C-1.625 5.6875 -1.625 5.6875 -2 3 C-1.34 2.01 -0.68 1.02 0 0 Z " fill="#15D320" transform="translate(70,616)"/>
<path d="M0 0 C0 4.38968456 -2.12805101 5.76905739 -5 9 C-5.99 8.34 -6.98 7.68 -8 7 C-5.36 4.69 -2.72 2.38 0 0 Z " fill="#4DD451" transform="translate(547,553)"/>
<path d="M0 0 C0.99 0 1.98 0 3 0 C3.33 0.99 3.66 1.98 4 3 C3.34 3 2.68 3 2 3 C1.67 3.99 1.34 4.98 1 6 C0.01 5.67 -0.98 5.34 -2 5 C-1.34 3.35 -0.68 1.7 0 0 Z " fill="#21D729" transform="translate(554,546)"/>
<path d="M0 0 C1.43088528 2.86177057 0.59991697 4.93375773 0 8 C-1.65 8 -3.3 8 -5 8 C-3.62845496 5.04590299 -2.01136276 2.55991624 0 0 Z " fill="#3DD343" transform="translate(559,538)"/>
<path d="M0 0 C0.66 0.33 1.32 0.66 2 1 C2 2.32 2 3.64 2 5 C0 6.75 0 6.75 -2 8 C-2.33 7.01 -2.66 6.02 -3 5 C-1.5625 2.3125 -1.5625 2.3125 0 0 Z " fill="#41D843" transform="translate(573,515)"/>
<path d="M0 0 C3.7910119 1.44950455 7.3874638 3.15172566 11 5 C10.67 5.99 10.34 6.98 10 8 C8.33055479 6.85821872 6.6645052 5.71147095 5 4.5625 C4.071875 3.92441406 3.14375 3.28632812 2.1875 2.62890625 C1.465625 2.09136719 0.74375 1.55382812 0 1 C0 0.67 0 0.34 0 0 Z " fill="#CAFACA" transform="translate(373,515)"/>
<path d="M0 0 C0.33 0.99 0.66 1.98 1 3 C1.66 3 2.32 3 3 3 C3.33 4.32 3.66 5.64 4 7 C-2.875 3.25 -2.875 3.25 -4 1 C-2.68 0.67 -1.36 0.34 0 0 Z " fill="#D4FAD6" transform="translate(348,492)"/>
<path d="M0 0 C0.66 0 1.32 0 2 0 C2.67154933 1.28913487 3.33708859 2.58140204 4 3.875 C4.37125 4.59429687 4.7425 5.31359375 5.125 6.0546875 C6 8 6 8 6 10 C5.01 9.67 4.02 9.34 3 9 C2.05078125 6.93359375 2.05078125 6.93359375 1.3125 4.4375 C1.06113281 3.61121094 0.80976563 2.78492188 0.55078125 1.93359375 C0.36902344 1.29550781 0.18726563 0.65742188 0 0 Z " fill="#65E25E" transform="translate(277,329)"/>
<path d="M0 0 C2.34917898 2.15341406 3.82443004 4.21667937 5.25 7.0625 C5.60578125 7.75472656 5.9615625 8.44695312 6.328125 9.16015625 C6.54984375 9.76730469 6.7715625 10.37445313 7 11 C6.67 11.66 6.34 12.32 6 13 C4.98868775 11.59138651 3.99133233 10.17274547 3 8.75 C2.1646875 7.56664063 2.1646875 7.56664063 1.3125 6.359375 C0 4 0 4 0 0 Z " fill="#A2F492" transform="translate(667,112)"/>
<path d="M0 0 C5.66710699 1.31793186 7.66437233 3.48709197 11 8 C8 8 8 8 6.0625 6.25 C5.381875 5.5075 4.70125 4.765 4 4 C3.2575 3.2575 2.515 2.515 1.75 1.75 C1.1725 1.1725 0.595 0.595 0 0 Z " fill="#A0F78D" transform="translate(624,70)"/>
<path d="M0 0 C0.66 0.33 1.32 0.66 2 1 C1.01 2.485 1.01 2.485 0 4 C-0.99 4 -1.98 4 -3 4 C-3.33 4.99 -3.66 5.98 -4 7 C-5.32 6.67 -6.64 6.34 -8 6 C-5.36 4.02 -2.72 2.04 0 0 Z " fill="#CDFBD1" transform="translate(630,662)"/>
<path d="M0 0 C1.98 0.495 1.98 0.495 4 1 C4.33 2.32 4.66 3.64 5 5 C3.35 5 1.7 5 0 5 C-0.33 4.01 -0.66 3.02 -1 2 C-0.67 1.34 -0.34 0.68 0 0 Z " fill="#2AD62F" transform="translate(393,530)"/>
<path d="M0 0 C1.14926266 0.95421808 2.29430541 1.91352045 3.4375 2.875 C4.07558594 3.40867187 4.71367187 3.94234375 5.37109375 4.4921875 C7 6 7 6 8 8 C5.125 7.375 5.125 7.375 2 6 C0.625 2.875 0.625 2.875 0 0 Z " fill="#59DB58" transform="translate(287,440)"/>
<path d="M0 0 C1.5625 1.25 1.5625 1.25 3 3 C2.6875 5.1875 2.6875 5.1875 2 7 C1.34 7 0.68 7 0 7 C-0.66 5.02 -1.32 3.04 -2 1 C-1.34 0.67 -0.68 0.34 0 0 Z " fill="#81F26E" transform="translate(253,170)"/>
<path d="M0 0 C7.57142857 1.85714286 7.57142857 1.85714286 10 5 C9.67 5.66 9.34 6.32 9 7 C7.4972763 6.02501855 5.99788037 5.04490611 4.5 4.0625 C3.6646875 3.51722656 2.829375 2.97195313 1.96875 2.41015625 C1.3190625 1.94480469 0.669375 1.47945313 0 1 C0 0.67 0 0.34 0 0 Z " fill="#53D755" transform="translate(528,461)"/>
<path d="M0 0 C1.65 0 3.3 0 5 0 C5.33 2.64 5.66 5.28 6 8 C5.67 7.34 5.34 6.68 5 6 C4.34 6 3.68 6 3 6 C2.01 4.02 1.02 2.04 0 0 Z " fill="#DFFDDA" transform="translate(238,386)"/>
<path d="M0 0 C2.52588702 2.36292656 3.88820837 3.66462511 5 7 C4.01 7.495 4.01 7.495 3 8 C2.67 7.34 2.34 6.68 2 6 C1.01 6 0.02 6 -1 6 C-0.67 4.02 -0.34 2.04 0 0 Z " fill="#65E460" transform="translate(211,350)"/>
<path d="M0 0 C2.74277578 3.19990508 4.6302836 6.00499382 6 10 C5.01 9.67 4.02 9.34 3 9 C2.67 7.35 2.34 5.7 2 4 C1.34 4 0.68 4 0 4 C0 2.68 0 1.36 0 0 Z " fill="#6EE269" transform="translate(201,334)"/>
<path d="M0 0 C-0.33 1.32 -0.66 2.64 -1 4 C-1.99 4 -2.98 4 -4 4 C-4 4.66 -4 5.32 -4 6 C-4.99 5.67 -5.98 5.34 -7 5 C-2.25 0 -2.25 0 0 0 Z " fill="#13D11E" transform="translate(655,637)"/>
<path d="M0 0 C0.33 0 0.66 0 1 0 C0.67 2.97 0.34 5.94 0 9 C-0.99 9.33 -1.98 9.66 -3 10 C-2.01 6.7 -1.02 3.4 0 0 Z " fill="#C9F9C9" transform="translate(681,592)"/>
<path d="M0 0 C0.33 0 0.66 0 1 0 C1.36923077 7.50769231 1.36923077 7.50769231 -0.5 10 C-0.995 10.33 -1.49 10.66 -2 11 C-1.125 3.375 -1.125 3.375 0 0 Z " fill="#CEFBD0" transform="translate(684,581)"/>
<path d="M0 0 C0.66 0.33 1.32 0.66 2 1 C1.67 2.65 1.34 4.3 1 6 C-0.32 6 -1.64 6 -3 6 C-3 4.35 -3 2.7 -3 1 C-2.01 0.67 -1.02 0.34 0 0 Z " fill="#38E239" transform="translate(435,441)"/>
<path d="M0 0 C1.96301592 3.50538557 2.95902388 7.13351728 4 11 C3.34 10.67 2.68 10.34 2 10 C2 9.34 2 8.68 2 8 C1.34 8 0.68 8 0 8 C0 5.36 0 2.72 0 0 Z " fill="#D3FBD0" transform="translate(275,325)"/>
<path d="M0 0 C2.76223278 2.76223278 2.57856291 5.20706617 3 9 C2.01 8.67 1.02 8.34 0 8 C0 5.36 0 2.72 0 0 Z " fill="#A0F592" transform="translate(681,144)"/>
<path d="M0 0 C1.39195915 4.17587745 -0.17676781 6.13474776 -2 10 C-2.33 10 -2.66 10 -3 10 C-2.67 7.36 -2.34 4.72 -2 2 C-1.34 2 -0.68 2 0 2 C0 1.34 0 0.68 0 0 Z " fill="#8DF378" transform="translate(58,136)"/>
<path d="M0 0 C0.33 0 0.66 0 1 0 C3.42857143 7.42857143 3.42857143 7.42857143 2 11 C2 10.34 2 9.68 2 9 C1.34 9 0.68 9 0 9 C0 6.03 0 3.06 0 0 Z " fill="#D7FCDA" transform="translate(51,581)"/>
<path d="M0 0 C3.34373475 0.55728913 6.03312999 1.35173889 9 3 C9 3.66 9 4.32 9 5 C5.54074837 3.7508258 2.85306797 2.32472205 0 0 Z " fill="#51D953" transform="translate(517,455)"/>
<path d="M0 0 C0.88492145 2.47778006 1.11637742 3.66056586 0.25 6.1875 C-1 8 -1 8 -4 9 C-2.80100302 5.9168649 -1.52299523 2.93720508 0 0 Z " fill="#7EE875" transform="translate(294,283)"/>
</svg>
