<?xml version="1.0" encoding="UTF-8"?>
<svg version="1.1" xmlns="http://www.w3.org/2000/svg" width="640" height="640">
<path d="M0 0 C211.2 0 422.4 0 640 0 C640 211.2 640 422.4 640 640 C428.8 640 217.6 640 0 640 C0 428.8 0 217.6 0 0 Z " fill="#4990E2" transform="translate(0,0)"/>
<path d="M0 0 C1.96367975 0.44679913 3.93296383 0.85296192 5.90576172 1.25732422 C31.35173232 6.75847368 55.977374 20.60091015 73.97216797 39.44873047 C73.97216797 40.10873047 73.97216797 40.76873047 73.97216797 41.44873047 C74.61154297 41.71685547 75.25091797 41.98498047 75.90966797 42.26123047 C77.97216797 43.44873047 77.97216797 43.44873047 78.97216797 46.44873047 C79.63216797 46.77873047 80.29216797 47.10873047 80.97216797 47.44873047 C81.63216797 47.77873047 82.29216797 48.10873047 82.97216797 48.44873047 C83.30216797 49.43873047 83.63216797 50.42873047 83.97216797 51.44873047 C84.63216797 51.77873047 85.29216797 52.10873047 85.97216797 52.44873047 C86.63216797 52.77873047 87.29216797 53.10873047 87.97216797 53.44873047 C88.30216797 54.43873047 88.63216797 55.42873047 88.97216797 56.44873047 C89.63216797 56.77873047 90.29216797 57.10873047 90.97216797 57.44873047 C91.63216797 57.77873047 92.29216797 58.10873047 92.97216797 58.44873047 C93.30216797 59.43873047 93.63216797 60.42873047 93.97216797 61.44873047 C94.63216797 61.77873047 95.29216797 62.10873047 95.97216797 62.44873047 C96.63216797 62.77873047 97.29216797 63.10873047 97.97216797 63.44873047 C98.30216797 64.43873047 98.63216797 65.42873047 98.97216797 66.44873047 C99.63216797 66.77873047 100.29216797 67.10873047 100.97216797 67.44873047 C101.63216797 67.77873047 102.29216797 68.10873047 102.97216797 68.44873047 C103.30216797 69.43873047 103.63216797 70.42873047 103.97216797 71.44873047 C104.63216797 71.77873047 105.29216797 72.10873047 105.97216797 72.44873047 C106.63216797 72.77873047 107.29216797 73.10873047 107.97216797 73.44873047 C108.30216797 74.43873047 108.63216797 75.42873047 108.97216797 76.44873047 C109.63216797 76.77873047 110.29216797 77.10873047 110.97216797 77.44873047 C111.63216797 77.77873047 112.29216797 78.10873047 112.97216797 78.44873047 C113.30216797 79.43873047 113.63216797 80.42873047 113.97216797 81.44873047 C114.63216797 81.77873047 115.29216797 82.10873047 115.97216797 82.44873047 C116.63216797 82.77873047 117.29216797 83.10873047 117.97216797 83.44873047 C118.30216797 84.43873047 118.63216797 85.42873047 118.97216797 86.44873047 C119.63216797 86.77873047 120.29216797 87.10873047 120.97216797 87.44873047 C121.63216797 87.77873047 122.29216797 88.10873047 122.97216797 88.44873047 C123.30216797 89.43873047 123.63216797 90.42873047 123.97216797 91.44873047 C124.63216797 91.77873047 125.29216797 92.10873047 125.97216797 92.44873047 C126.63216797 92.77873047 127.29216797 93.10873047 127.97216797 93.44873047 C128.30216797 94.43873047 128.63216797 95.42873047 128.97216797 96.44873047 C129.63216797 96.77873047 130.29216797 97.10873047 130.97216797 97.44873047 C131.63216797 97.77873047 132.29216797 98.10873047 132.97216797 98.44873047 C133.30216797 99.43873047 133.63216797 100.42873047 133.97216797 101.44873047 C134.63216797 101.77873047 135.29216797 102.10873047 135.97216797 102.44873047 C136.63216797 102.77873047 137.29216797 103.10873047 137.97216797 103.44873047 C138.30216797 104.43873047 138.63216797 105.42873047 138.97216797 106.44873047 C139.63216797 106.77873047 140.29216797 107.10873047 140.97216797 107.44873047 C141.63216797 107.77873047 142.29216797 108.10873047 142.97216797 108.44873047 C143.30216797 109.43873047 143.63216797 110.42873047 143.97216797 111.44873047 C144.57158203 111.74005859 145.17099609 112.03138672 145.78857422 112.33154297 C152.62217714 115.82780493 157.44801588 125.94712118 160.12841797 132.87451172 C163.22882823 146.00819406 161.80561049 159.72457288 155.34716797 171.51123047 C147.99362556 182.95405988 137.52121333 190.43702587 124.34716797 193.88623047 C111.41821285 196.04105632 98.74303274 193.90186975 87.68562698 186.71269608 C81.61585764 182.23521537 76.47046639 176.46381009 71.22509575 171.07748222 C68.8013583 168.58930674 66.36179954 166.11763621 63.91773987 163.64942932 C58.73412452 158.40897898 53.57048307 153.14912341 48.40966797 147.88623047 C42.4211192 141.77931993 36.42446687 135.68084071 30.40626717 129.60313606 C28.01293928 127.17760297 25.63527794 124.73742119 23.25791931 122.29624939 C21.77857281 120.79872678 20.29851219 119.30190919 18.81762695 117.8059082 C18.16955582 117.13200546 17.52148468 116.45810272 16.85377502 115.76377869 C10.94610642 109.85279909 4.26851367 105.33319069 -4.27783203 104.94873047 C-9.94536448 105.27689745 -13.46507285 107.06768747 -17.71533203 110.82373047 C-21.74714298 115.40038073 -23.45793744 118.58674275 -23.46533203 124.76123047 C-23.48466797 125.82986328 -23.50400391 126.89849609 -23.52392578 127.99951172 C-22.31133079 136.43038869 -17.22253066 141.83438514 -11.34448242 147.63378906 C-10.57474091 148.40893356 -9.80499939 149.18407806 -9.01193237 149.98271179 C-6.47624571 152.53085635 -3.92638875 155.06426073 -1.37548828 157.59716797 C0.40434915 159.37716055 2.18351851 161.15782137 3.96205139 162.93911743 C7.69063151 166.66908055 11.42587767 170.39223222 15.16674805 174.10986328 C18.98765043 177.9071894 22.80024258 181.71260238 26.60424805 185.52685547 C31.21829898 190.15331957 35.8397476 194.77224124 40.46777534 199.38472366 C42.2202894 201.13275734 43.97076782 202.88283458 45.71906853 204.63508224 C57.64709031 216.57741139 69.33731891 228.19706381 84.59716797 235.82373047 C85.41636719 236.24090332 86.23556641 236.65807617 87.07958984 237.08789062 C92.91838618 240.01770695 98.65159711 242.72645852 104.97216797 244.44873047 C105.60960937 244.62629883 106.24705078 244.80386719 106.90380859 244.98681641 C136.12450868 252.87029009 165.99371353 248.35092828 192.57763672 234.40576172 C219.50091983 218.8838229 237.74087494 194.34952598 245.97216797 164.44873047 C253.61265952 135.642845 248.98325097 105.15794177 234.37841797 79.41357422 C225.7239345 64.82669523 213.50761255 51.28987717 198.97216797 42.44873047 C197.88033203 41.78228516 196.78849609 41.11583984 195.66357422 40.42919922 C177.00297081 29.29019876 157.88598703 24.2442831 136.22216797 24.26123047 C135.15683838 24.26203613 134.09150879 24.2628418 132.99389648 24.26367188 C124.37874926 24.33093135 116.5590268 25.04934981 108.28466797 27.57373047 C103.5791373 28.81670083 98.64347852 29.82417122 94.13623047 27.50341797 C89.758038 24.10764918 88.2783289 20.84699109 87.59716797 15.51123047 C88.1563538 10.94454618 90.29889188 7.99329301 93.64794922 4.90185547 C96.72723379 2.9766557 99.91219448 2.19687843 103.40966797 1.38623047 C104.12630615 1.21704102 104.84294434 1.04785156 105.58129883 0.87353516 C107.70836204 0.38251067 109.83894781 -0.0878174 111.97216797 -0.55126953 C113.52291016 -0.89738281 113.52291016 -0.89738281 115.10498047 -1.25048828 C142.11491516 -6.328356 171.40113516 -1.36957529 195.97216797 10.44873047 C196.725625 10.80483398 197.47908203 11.1609375 198.25537109 11.52783203 C208.4330072 16.40589662 217.35278153 22.17936841 225.97216797 29.44873047 C226.84228516 30.17833984 227.71240234 30.90794922 228.60888672 31.65966797 C240.04044549 41.60171438 249.11194778 52.55007905 256.97216797 65.44873047 C257.32907715 66.02397461 257.68598633 66.59921875 258.05371094 67.19189453 C275.2192275 95.29851301 281.2366165 132.21893998 273.65942383 164.25097656 C273.12651453 166.32599058 272.55004296 168.38582138 271.97216797 170.44873047 C271.75326904 171.30716553 271.53437012 172.16560059 271.30883789 173.05004883 C265.25325517 196.46072202 253.26591263 215.87563332 236.97216797 233.44873047 C236.26318359 234.22861328 235.55419922 235.00849609 234.82373047 235.81201172 C216.89815844 254.68302531 191.87260997 266.15865202 166.97216797 272.44873047 C165.11591797 272.93019531 165.11591797 272.93019531 163.22216797 273.42138672 C146.7555113 277.1092317 128.4805905 276.86763454 111.97216797 273.44873047 C111.32940918 273.3251416 110.68665039 273.20155273 110.02441406 273.07421875 C66.2475119 264.56232993 38.43074047 234.19810834 8.04797077 203.96934986 C2.69506556 198.6440104 -2.66916602 193.33066103 -8.04916352 188.03268987 C-12.32193161 183.8228293 -16.57503435 179.59360821 -20.82196999 175.35767174 C-22.61595192 173.5740347 -24.41589992 171.79637585 -26.22211266 170.0251255 C-49.98152736 146.70237037 -49.98152736 146.70237037 -50.26977539 128.84912109 C-50.31879411 113.4839799 -47.00604367 102.70155102 -36.27783203 91.13623047 C-26.58252943 81.95021419 -14.07485748 77.9908945 -0.89892578 78.17138672 C13.17848407 79.53124536 24.22809636 86.02418404 33.9128418 95.96704102 C34.63778839 96.69461609 35.36273499 97.42219116 36.10964966 98.17181396 C38.47555653 100.55057945 40.82716005 102.94297841 43.17919922 105.33544922 C44.83341871 107.00222684 46.4886843 108.66796684 48.14494324 110.3327179 C52.48341495 114.69767627 56.81057669 119.07365884 61.13452148 123.45300293 C68.0695386 130.47458797 75.01830502 137.48250321 81.97351646 144.48407936 C84.39627478 146.92724742 86.81207597 149.377141 89.22724915 151.82780457 C90.71075641 153.32496742 92.19448376 154.82191225 93.6784668 156.31860352 C94.34608536 156.99969681 95.01370392 157.6807901 95.70155334 158.38252258 C101.51135691 164.22057281 106.34915745 167.5079069 114.72216797 167.76123047 C121.17550891 167.68508485 125.67951369 165.67942111 130.28466797 161.19873047 C133.76207483 155.53184521 135.79964558 150.18676243 134.97216797 143.44873047 C132.64028633 136.1139816 128.52854488 131.28853414 123.12109375 125.96655273 C122.33345139 125.17175507 121.54580902 124.3769574 120.73429871 123.55807495 C118.14093914 120.94788367 115.52993386 118.35620682 112.91748047 115.76513672 C111.09505201 113.94187862 109.27344024 112.11780389 107.4526062 110.29295349 C103.63566026 106.47315265 99.81038293 102.6619995 95.97802734 98.85766602 C91.57940986 94.49096897 87.19689491 90.10861538 82.82287037 85.71729428 C78.58314352 81.46155597 74.33197088 77.21746665 70.07580185 72.97816277 C68.28150495 71.18900664 66.48996713 69.39707864 64.70138931 67.60220528 C39.30760823 42.15266171 11.20116423 24.32898918 -25.90283203 24.19873047 C-53.70543117 24.26181845 -80.39388956 33.47977471 -101.02783203 52.44873047 C-101.54442383 52.91762695 -102.06101563 53.38652344 -102.59326172 53.86962891 C-123.53697433 73.07321109 -136.87746334 99.65719583 -138.15332031 128.26220703 C-138.55187002 140.97974789 -138.5069569 153.12871254 -135.02783203 165.44873047 C-134.76099609 166.44130859 -134.49416016 167.43388672 -134.21923828 168.45654297 C-128.74162876 186.71524137 -118.35873357 202.99843402 -105.02783203 216.44873047 C-104.17318359 217.31626953 -103.31853516 218.18380859 -102.43798828 219.07763672 C-92.35753155 228.76397033 -80.06083252 236.39114819 -67.02783203 241.44873047 C-65.67044922 241.98240234 -65.67044922 241.98240234 -64.28564453 242.52685547 C-43.35501071 250.12768184 -20.60827585 250.81890473 0.87841797 245.32373047 C6.19571227 244.04074738 11.08629309 243.73707957 16.28466797 245.69873047 C19.01510294 247.47668813 20.28051574 248.70406129 21.97216797 251.44873047 C22.72252122 255.97291921 22.5186315 260.16454118 20.72216797 264.38623047 C17.70208871 267.94560959 14.87495004 269.7314183 10.33935547 270.80029297 C9.44990234 271.01169922 8.56044922 271.22310547 7.64404297 271.44091797 C6.72107422 271.64974609 5.79810547 271.85857422 4.84716797 272.07373047 C3.94740234 272.29029297 3.04763672 272.50685547 2.12060547 272.72998047 C-29.86378203 280.17462239 -64.59588795 274.57567702 -93.02783203 258.44873047 C-93.91124268 257.94937988 -93.91124268 257.94937988 -94.8125 257.43994141 C-102.4263411 253.07515606 -109.37342391 248.16025015 -116.02783203 242.44873047 C-117.27693359 241.38332031 -117.27693359 241.38332031 -118.55126953 240.29638672 C-145.62756659 216.59421283 -162.5995883 182.42006652 -165.02783203 146.44873047 C-167.24212514 109.6991003 -156.36029435 73.95399155 -132.11376953 46.04248047 C-117.47746662 29.63849663 -101.07499861 17.40221525 -81.02783203 8.44873047 C-80.39296875 8.16513672 -79.75810547 7.88154297 -79.10400391 7.58935547 C-68.46931843 2.96463071 -57.60501494 0.67807311 -46.19165039 -1.19140625 C-44.48416659 -1.47537681 -42.78357479 -1.80078194 -41.08642578 -2.14111328 C-27.51090472 -3.96158545 -13.31965753 -3.03209063 0 0 Z " fill="#FCFDFE" transform="translate(268.02783203125,176.55126953125)"/>
</svg>
